<svg xmlns="http://www.w3.org/2000/svg" viewBox="0 0 485 411.42"><defs><style>.cls-1{fill:#fff;}.cls-2{fill:#ffcbd0;}.cls-10,.cls-11,.cls-12,.cls-3{fill:none;}.cls-10,.cls-11,.cls-3{stroke:#4f1f37;stroke-linecap:round;stroke-linejoin:round;}.cls-3{stroke-width:1.19px;}.cls-4{fill:#ff9280;}.cls-5{fill:#fbf0e8;}.cls-6{fill:#4f1f37;}.cls-7{fill:#6c92e5;}.cls-8{fill:#90d3d0;}.cls-9{fill:#ff794f;}.cls-10{stroke-width:0.38px;}.cls-11{stroke-width:0.25px;}.cls-13{fill:#ffcc7a;}</style></defs><g id="Layer_2" data-name="Layer 2"><g id="Layer_1-2" data-name="Layer 1"><path class="cls-1" d="M24.09,411.42A13.44,13.44,0,0,1,10.9,400.58C4,365.78-2.89,320.19,4.76,276.12A199,199,0,0,1,15.28,238c-2.1-5.83-4-11.89-5.71-18.09a275.21,275.21,0,0,1-9.07-57c0-.59-.09-1.2-.1-1.8a341.35,341.35,0,0,1,2.5-60.45,65.31,65.31,0,0,1,1.35-7.78,14,14,0,0,1,.94-7.19l.23-.53a14,14,0,0,1,18.37-6.91l1,.43,6.48.92c27,3.82,54.82,7.76,81.59,15a13.68,13.68,0,0,1,8.61-3.15h.15c.41,0,.83,0,1.25.06a13.84,13.84,0,0,1,8.69,4.22c1.25-2.56,2.55-5.13,3.92-7.67,24-44.74,69.27-77.67,118.2-85.93A153.33,153.33,0,0,1,279.16,0,157.85,157.85,0,0,1,378,34.43l.19.15c3.75,3,7.27,6.17,10.48,9.33,1.31,1.28,2.64,2.64,3.92,4a159.58,159.58,0,0,1,20.18,26.64A174.85,174.85,0,0,1,421.61,91c.41.84.86,1.8,1.3,2.78l.21.46c2.68.37,5.32.86,7.88,1.45a98.29,98.29,0,0,1,31.74,13,13.43,13.43,0,0,1,3.77,3.58c8.13,7.39,13.39,18.84,16,34.81A197.1,197.1,0,0,1,470.37,252.8,13.45,13.45,0,0,1,458,261.12a13.48,13.48,0,0,1-6.29-1.56c.23,5.42.4,10.5.52,15.39,1.1,43.93-.76,85.88-5.54,124.67a13.46,13.46,0,0,1-13.35,11.8Z"/><path class="cls-2" d="M433.29,398H24.09C16.42,359.18,11.24,317.4,18,278.42a184.83,184.83,0,0,1,11.7-40.19c10-23.76,25.27-45.1,45.95-60.27,10.45-7.67,22.19-13.77,32.35-21.75.49-.36,1-.74,1.43-1.14a73.28,73.28,0,0,0,7-6.34,75.24,75.24,0,0,0,5.11-5.94c.23-.29.45-.59.67-.9,5.85-7.78,10.29-16.56,14.51-25.53,3.47-7.35,6.79-14.82,10.62-21.94,21.9-40.86,62.9-71.33,108.6-79,39.79-6.72,82.31,4.31,113.62,29.52l0,0a127.88,127.88,0,0,1,9.64,8.56c1.21,1.19,2.42,2.42,3.59,3.65a145,145,0,0,1,18.44,24.37,161.27,161.27,0,0,1,8.25,15.26c.4.83.79,1.66,1.17,2.51,1.27,2.78,2.51,5.6,3.65,8.47.14.34.27.68.4,1s.32.77.45,1.15c1.84,4.68,3.5,9.46,5,14.3.83,2.62,1.59,5.27,2.33,7.93.12.34.21.7.3,1,.24.88.47,1.75.69,2.63a.65.65,0,0,1,0,.2c.17.58.33,1.16.47,1.77v0c.06.25.15.49.22.74v.07a4,4,0,0,0,.11.47c.11.49.25,1,.36,1.48,1,4.19,2,8.43,2.8,12.66.32,1.46.61,2.92.88,4.37.13.74.27,1.46.4,2.18.34,1.88.67,3.74,1,5.62v0c1.51,9,2.69,18,3.66,27,.38,3.56.74,7.1,1.05,10.64q1.32,14.32,2.24,28.72.7,9.84,1.17,19.72c0,.56,0,1.1.07,1.66v0c.35,7.35.65,14.71.82,22.08C439.77,316.32,438.29,357.43,433.29,398Z"/><path class="cls-3" d="M252,305.26c9.69-17,12.37-37,13.34-56.48a378.18,378.18,0,0,0-16.69-131.27"/><path class="cls-4" d="M265.39,204.62c-17.92-21.22-35.4-43-49.35-67s-24.3-50.5-26.95-78.14c37.3-21.42,84.59-30.88,126.51-21.24C317.1,94.41,290,154.11,265.39,204.62Z"/><path class="cls-3" d="M187.29,61.16c8.4-1.83,17.37.47,24.63,5.09s13,11.37,17.47,18.69c3.77-6.7,7.9-12.59,14.15-17.06s14.15-7,21.72-5.67c5,.86,9.61,3.3,14.08,5.74C284.52,51.3,300,38.83,317.21,36"/><path class="cls-3" d="M279.71,67.18a838.1,838.1,0,0,1-15.38,140.11C252.23,166,240.48,125.59,229.72,84"/><path class="cls-5" d="M245,56.83c0,1.71-2.7,3.09-6,3.09s-6-1.38-6-3.09,2.71-3.1,6-3.1S245,55.12,245,56.83Z"/><path class="cls-5" d="M260,46.22c0,1.71-2.71,3.09-6,3.09s-6-1.38-6-3.09,2.71-3.1,6-3.1S260,44.51,260,46.22Z"/><path class="cls-5" d="M275.92,51.52c0,1.71-2.7,3.1-6,3.1s-6-1.39-6-3.1,2.7-3.09,6-3.09S275.92,49.82,275.92,51.52Z"/><path class="cls-6" d="M265.75,212.45c-6.1-16-20.7-27-30.08-41.35,4.12-.41,8.39-.72,12.4.29,6,1.51,11,6.15,13.81,11.66,3.16-11.16,14.17-19.93,25.75-20.64C281,179.88,269.38,194.11,265.75,212.45Z"/><path class="cls-6" d="M363.21,157.46c12.81-4.42,26.82-3.44,40-.3a73.28,73.28,0,0,1,19.53,7.28c13.38,7.64,23.08,21.23,28.36,36.16a123.69,123.69,0,0,1,6.86,47.07,182.63,182.63,0,0,0,11.3-98.38c-1.95-11.93-6.13-25-16.56-30.35-16.72,1.37-35.35,1.89-51.23,7.53S373.44,143.61,363.21,157.46Z"/><path class="cls-7" d="M455.53,120.08h-.91c-12.82,0-23.29,2.25-34.71,8.59-1.39.77-2.75,1.6-4.09,2.43-8.13,5.16-15.45,11.62-22.45,18.39-1.77,1.71-3.54,3.44-5.26,5.22a340.3,340.3,0,0,0-40,48.81c-16.9,25-30.52,52.19-44.08,79.28-19.56,39-36.46,76.4-55.55,115.18h-5.94a392.75,392.75,0,0,1-.45-39.72v0c0-.59,0-1.18.09-1.76a398.46,398.46,0,0,1,15.41-94,383.81,383.81,0,0,1,13-37.47c15.52-38.37,38.1-75.16,71.56-97.92C361.49,114,385,106.42,407.92,106.6a88.35,88.35,0,0,1,10.43.63h.09A79.39,79.39,0,0,1,428,108.8,85.09,85.09,0,0,1,455.53,120.08Z"/><path class="cls-6" d="M428,108.8a128.73,128.73,0,0,0-19.24,0c-26.4,2-51.36,12.29-69.88,29.89-11.35,10.78-20.14,23.78-27.22,35.12-21.48,34.37-38.28,80.1-50,126.21-4,15.64-7.43,31.32-10.23,46.62-.13.63-.24,1.26-.37,1.89-3.11,17.22-5.46,33.92-7.06,49.47h-1.14c1.53-15.13,3.8-31.31,6.8-48,.08-.63.21-1.26.34-1.92,3.09-17.05,6.91-34.63,11.49-52.09,11.72-45,28.21-89.3,49.2-122.83,7.14-11.39,15.95-24.48,27.39-35.35,18.66-17.69,43.74-28.06,70.25-30.16,3.33-.27,6.67-.4,10-.4h.09A79.39,79.39,0,0,1,428,108.8Z"/><path class="cls-8" d="M261.59,329.12c-.29,3.27-.71,6.59-1.25,9.93-.09.56-.18,1.12-.27,1.7v0c-3.16,18.77-9.53,38.45-15.76,57.21H214.72c-1.79-1.39-3.6-2.72-5.42-4-41.31-29.38-91.52-45.83-129-80-1-1-2.08-1.93-3.09-2.89-.34-.32-.65-.63-1-1-18.92-18.33-33.56-40.82-43.85-65.18-.13-.34-.29-.67-.42-1-.79-1.88-1.55-3.79-2.27-5.69a225.42,225.42,0,0,1-7.17-21.83,261.26,261.26,0,0,1-8.63-54.54,10.9,10.9,0,0,1-.07-1.14,328.65,328.65,0,0,1,2.4-58.32c.45-3.57,1-7.2,2.56-10.4l.27-.52,2,.29h0c34.79,5,71.14,9.57,104.45,20.65q5.58,1.85,11.1,3.94A237.36,237.36,0,0,1,170.07,132c.34.18.68.36,1,.56,16.65,9.64,31.87,21.52,44.47,36a159,159,0,0,1,14.28,19.25c.22.36.45.72.65,1.08,11.39,18.27,19.32,38.73,24.54,59.67.12.42.23.85.32,1.27s.15.59.22.88c1,4.08,1.86,8.18,2.65,12.3a249.27,249.27,0,0,1,4,33.31c.07,1.35.13,2.67.18,4A225.92,225.92,0,0,1,261.59,329.12Z"/><path class="cls-6" d="M239.29,398h-1.12c1.93-21.19.58-42.14-1.23-60.86-1.24-12.53-2.94-26.63-5.79-41.29,0-.35-.13-.74-.2-1.12-3.94-19.92-10-40.84-19.92-60.22a182.16,182.16,0,0,0-11.86-20c-.23-.35-.47-.71-.74-1.07-14.37-20.85-33.62-40.12-57.52-57.56l-1.5-1.08q-5.78-4.17-11.9-8.18c-2-1.3-4-2.58-6-3.83C89.05,122.39,53.41,107,18.8,92c-.29-.14-.61-.25-.9-.39a.59.59,0,0,1-.29-.73.56.56,0,0,1,.74-.3c.92.41,1.84.79,2.76,1.19h0c34.07,14.73,69.08,30,101,50.12,2,1.26,4,2.51,5.94,3.81a303.46,303.46,0,0,1,35.11,26.7l1,.87c20.44,18.34,36.33,38.37,47.43,59.89v0c.16.27.29.52.42.79l.34.65a218.05,218.05,0,0,1,17,47.63v0c.14.52.27,1,.38,1.5,4.44,18.9,6.75,37.3,8.32,53.24.69,7.15,1.32,14.61,1.7,22.32a12.21,12.21,0,0,1,.07,1.35A271.38,271.38,0,0,1,239.29,398Z"/><path class="cls-6" d="M141.37,155.34a.57.57,0,0,1-.45.54.15.15,0,0,1-.09,0l-53.06.49c-24.41.23-49.56.45-73.85,5.47a8.72,8.72,0,0,1-.07-1.14c24.36-5,49.51-5.22,73.92-5.45l51.65-.47,1.39,0A.52.52,0,0,1,141.37,155.34Z"/><path class="cls-6" d="M171.07,132.59c-.39,1.12-.74,2.26-1.08,3.41-3.56,12-4.64,24.72-5.72,37a.46.46,0,0,1-.09.27.52.52,0,0,1-.44.25h-.07a.54.54,0,0,1-.49-.61c0-.18,0-.33,0-.51,1-12.2,2.15-24.77,5.69-36.72.36-1.23.74-2.44,1.17-3.65C170.42,132.21,170.75,132.39,171.07,132.59Z"/><path class="cls-6" d="M199.53,214a.52.52,0,0,1-.36.51.46.46,0,0,1-.2.05h-2.64A460.91,460.91,0,0,0,32.41,244.93c-.13-.34-.29-.67-.43-1a460,460,0,0,1,166.45-30.48H199A.54.54,0,0,1,199.53,214Z"/><path class="cls-6" d="M230.46,188.94a138.35,138.35,0,0,0-18,45.43.6.6,0,0,1-.13.25.62.62,0,0,1-.43.2l-.11,0a.56.56,0,0,1-.43-.65c.07-.32.14-.65.2-1a140.4,140.4,0,0,1,18.2-45.32C230,188.22,230.26,188.58,230.46,188.94Z"/><path class="cls-6" d="M232.17,295.27c0,.32-.27.63-.56.56h-.45A679.05,679.05,0,0,0,77.22,311.08c-.34-.32-.65-.63-1-1A682.75,682.75,0,0,1,231,294.71h.65A.57.57,0,0,1,232.17,295.27Z"/><path class="cls-6" d="M255.32,249.88a152.92,152.92,0,0,0-25.44,33.76.32.32,0,0,1-.13.13.46.46,0,0,1-.36.16.54.54,0,0,1-.27-.07.57.57,0,0,1-.22-.76c.15-.27.31-.56.47-.83A152.82,152.82,0,0,1,255,248.61C255.12,249,255.23,249.46,255.32,249.88Z"/><path class="cls-6" d="M260.34,339.05c-.09.56-.18,1.12-.27,1.7v0a201.78,201.78,0,0,0-19.83,19.73.59.59,0,0,1-.41.18h0a.62.62,0,0,1-.38-.14.55.55,0,0,1,0-.78c.13-.14.24-.29.38-.43A211.63,211.63,0,0,1,260.34,339.05Z"/><path class="cls-9" d="M163.24,180.84c-1.82,4.15-4,8.24-7.12,11.45-5.63,5.71-13.86,8.05-21.84,8.91a55.34,55.34,0,0,1-16.45-.55,34.16,34.16,0,0,1-15.21-6.79c-.38-.3-.74-.6-1.1-.93a33,33,0,0,1-9.76-17.38,39.93,39.93,0,0,1-.91-7.31A51.3,51.3,0,0,1,92,155.47c.34-1.55.73-3.08,1.2-4.58a56.75,56.75,0,0,1,3.55-8.83A54,54,0,0,1,113,123.16c6.32-4.75,13.75-2.47,20.44.61a87,87,0,0,1,16.87,9.88s0,0,0,0a52.08,52.08,0,0,1,6.89,6.3,41.47,41.47,0,0,1,7,10.36,32.21,32.21,0,0,1,3.17,15.93A44.43,44.43,0,0,1,163.24,180.84Z"/><path class="cls-1" d="M110.06,132.91a13.64,13.64,0,0,0,6.83,7.3,9.26,9.26,0,0,0,9.62-1.23,10.27,10.27,0,0,0,3.07-6,26.84,26.84,0,0,0,0-6.82C123,127.44,115.69,129.18,110.06,132.91Z"/><path class="cls-1" d="M126.09,148.77c-4.12-.84-8.57-.93-12.36.87s-6.74,5.85-6.25,10a29.38,29.38,0,0,0,1,4c.61,2.34.75,4.81,1.69,7a10.7,10.7,0,0,0,8,6.28,15.86,15.86,0,0,0,6.66-.6,17.42,17.42,0,0,0,6-2.76,13.76,13.76,0,0,0,5.17-10.51c.1-3.6-1.17-6.61-2.71-9.78S129.6,149.48,126.09,148.77Z"/><path class="cls-1" d="M164.16,150.32a10.39,10.39,0,0,1-7.36,4.12c-4.26.36-8.48-1.79-11.4-4.93a8.94,8.94,0,0,1-2.26-3.7,7.88,7.88,0,0,1,0-3.55,13,13,0,0,1,7.16-8.61s0,0,0,0a52.08,52.08,0,0,1,6.89,6.3A41.47,41.47,0,0,1,164.16,150.32Z"/><path class="cls-1" d="M150.44,168.25a11.55,11.55,0,0,0-2.53,5.27,8.4,8.4,0,0,0,4.58,8.57,8.83,8.83,0,0,0,9.66-1.59,9.32,9.32,0,0,0,2.26-9.59,11.32,11.32,0,0,0-6.41-6.34C155.08,163.42,152.15,166.1,150.44,168.25Z"/><path class="cls-1" d="M117.83,200.65a34.16,34.16,0,0,1-15.21-6.79,15.7,15.7,0,0,1,1.2-1.73c1.7-2.16,4.64-4.84,7.57-3.69a11.35,11.35,0,0,1,6.41,6.34A9.49,9.49,0,0,1,117.83,200.65Z"/><path class="cls-1" d="M95.84,166a8.7,8.7,0,0,1-5,2.29A51.3,51.3,0,0,1,92,155.47c.34-1.55.73-3.08,1.2-4.58a11,11,0,0,1,4.85,5.55A9.29,9.29,0,0,1,95.84,166Z"/><path class="cls-6" d="M138.67,126.25a27.43,27.43,0,0,0-11.14-11.32,18.1,18.1,0,0,0-15.55-.71c-4.25,2-7.41,5.85-9.3,10.13A45.35,45.35,0,0,0,99.52,138C112.45,134.68,126.53,131.82,138.67,126.25Z"/><path class="cls-10" d="M119.12,129.23l10.38,16.42a175.07,175.07,0,0,1,9,15.43c5.63,11.29,8.78,23.69,10.4,36.2"/><path class="cls-11" d="M98.72,109.76l16.22,8.84"/><path class="cls-11" d="M120.61,116.57q.42-5.7,1-11.38"/><path class="cls-12" d="M356,219.62a22.14,22.14,0,0,0-1.55-2.13c-6.32-8.15-21-19.94-31.13-27.65"/><path class="cls-12" d="M302.84,202A332.64,332.64,0,0,1,353,218.19c.68.27,1.35.54,2,.83"/><path class="cls-6" d="M369.36,213.12c-2.71,4.69-5.36,9.37-7.91,14.13q-7.8,14.25-14.75,28.89a596.31,596.31,0,0,0-27.52,68.23c0,.09-.07.18-.09.27q-3.1,9.35-5.9,18.8c-.47,1.5-.9,3-1.34,4.55q-7.1,24.64-12.06,50h-2.31a605.4,605.4,0,0,1,19.48-74c.6-1.84,1.23-3.67,1.86-5.49a599.93,599.93,0,0,1,25.73-63q7-14.62,14.73-28.91,4-7.31,8.13-14.51a1.12,1.12,0,1,1,1.95,1.12Z"/><path class="cls-1" d="M442.55,234.3a23.21,23.21,0,0,1,.58,6.32c-.73,12.93-13.86,21.77-26.5,24.68-13,3-26.34,2-39.49-.68-.67-10.31-.95-20.49-.84-31q-4.82,14.28-9.63,28.57c-3.64-1-7.27-2-10.84-3.09-3.4-1-6.81-2.11-10.18-3.25-11.34-3.86-22.4-8.55-32.25-15.35l-.39-.29a146.6,146.6,0,0,1,27-26.36l1.3-1-1.57.62a225.62,225.62,0,0,0-36.62,18.48c-7.94-7.83-14-17.48-16.28-28.29-1-4.54-.19-16.13,1.13-20.5,17.56.94,35.9,6.57,51.19,13.68a6.86,6.86,0,0,1,1.33-.95c-7.68-6.9-24.21-15.88-35.58-21.65,21.24-8.35,49.91-4.9,72.65,2.24q-2.38,8.32-4.29,16.77a148.22,148.22,0,0,1,11.06-14.47c2.61.94,5.09,2,7.44,3,17.7,7.62,33.63,20.17,43.64,36.53q-19.33-3.18-38.88-4.84c-3.15-.3-6.29-.52-9.43-.75,3.83,1.81,7.5,3.42,11.2,5s7.24,2.9,11.1,4.31C420.46,226,431.88,229.4,442.55,234.3Z"/><path class="cls-13" d="M398.7,220.69c-.29,5.16-5.5,8.68-10.53,9.85-8,1.84-16.36-.11-24.22-2.5-1.21-.38-2.41-.75-3.6-1.15a51.4,51.4,0,0,1-13.28-6.24,28.73,28.73,0,0,1-7-6.84l-.27-.36A21.25,21.25,0,0,1,336.5,206a9.89,9.89,0,0,1,.58-6.73,7.47,7.47,0,0,1,2.11-2.43,6.86,6.86,0,0,1,1.33-.95c.28-.19.57-.36.88-.53,10.36-5.57,26.68-2.48,36.87,1.91,7.62,3.31,14.41,8.86,18.29,16.16.24.48.49,1,.72,1.44a19.25,19.25,0,0,1,1.05,2.77A9.41,9.41,0,0,1,398.7,220.69Z"/><path class="cls-6" d="M311,347.94a88,88,0,0,1,86-51.71c2.11.14-4,16.8-4.86,18.41a68,68,0,0,1-11,14.65,69.23,69.23,0,0,1-28.56,17.48c-11.84,3.68-24.77,2.15-36.93,1.47Q313.28,348.12,311,347.94Z"/><path class="cls-6" d="M319.19,324.68a88,88,0,0,1-61.93-79c-.13-2.12,17.16,1.85,18.87,2.55a68.36,68.36,0,0,1,15.9,9.15,69.27,69.27,0,0,1,20.87,26.17c5.11,11.3,5.19,24.32,6,36.47Q319.08,322.37,319.19,324.68Z"/><path class="cls-6" d="M184.58,398H182c-.38-.72-.78-1.46-1.21-2.18q-4.74-8.57-9.77-17c0-.06-.09-.13-.14-.2A592.11,592.11,0,0,0,129.21,318q-9.95-12.78-20.66-25c-3.52-4.05-7.13-8.09-10.78-12.06a1.12,1.12,0,0,1,0-1.59,1.15,1.15,0,0,1,1.59.07q5.66,6.12,11.1,12.39,10.68,12.24,20.64,25A594.89,594.89,0,0,1,170,372.74c1,1.66,2,3.29,3,4.95Q179,387.71,184.58,398Z"/><path class="cls-1" d="M30.91,317.44a23,23,0,0,0,.8,6.29C35.23,336.2,50,342,62.94,342.07c13.3.11,26.14-3.75,38.4-9.24-1.59-10.21-3.53-20.2-5.93-30.47,5.21,8.59,10.39,17.18,15.61,25.79,3.35-1.72,6.66-3.54,9.91-5.37,3.1-1.73,6.19-3.54,9.23-5.38,10.24-6.24,20-13.21,28.15-22,.11-.11.21-.25.32-.37a146.31,146.31,0,0,0-32.11-19.85c-.5-.23-1-.46-1.49-.68l1.67.27a225.51,225.51,0,0,1,39.77,10.08c6.05-9.36,9.87-20.1,9.75-31.15-.05-4.64-3.32-15.79-5.56-19.76-16.94,4.72-33.62,14.2-47,24.46a7.61,7.61,0,0,0-1.5-.64c6-8.4,20.18-20.75,30-28.85-22.55-3.54-49.79,6.05-70.43,18q4.14,7.6,7.83,15.44a148.68,148.68,0,0,0-13.94-11.73c-2.35,1.49-4.55,3-6.62,4.5-15.62,11.29-28.45,27-34.67,45.14q18.2-7.31,36.9-13.17c3-1,6-1.87,9-2.78-3.36,2.6-6.58,5-9.86,7.28s-6.44,4.4-9.9,6.62C50.66,304.53,40.25,310.35,30.91,317.44Z"/><path class="cls-13" d="M70.75,294.64c1.41,5,7.26,7.28,12.42,7.32,8.21.06,15.94-3.65,23.1-7.7,1.09-.63,2.19-1.25,3.27-1.9a51.26,51.26,0,0,0,11.6-9,28.43,28.43,0,0,0,5.38-8.19l.18-.41a21.25,21.25,0,0,0,1.58-8,9.94,9.94,0,0,0-2-6.44,7.34,7.34,0,0,0-2.59-1.92,7.61,7.61,0,0,0-1.5-.64c-.32-.12-.64-.22-1-.32-11.32-3.19-26.58,3.37-35.57,9.87-6.72,4.88-12.15,11.78-14.35,19.74-.13.52-.27,1-.39,1.56a19.64,19.64,0,0,0-.42,2.94A9.42,9.42,0,0,0,70.75,294.64Z"/><path class="cls-6" d="M182.6,398H113.39c-.63-.38-1.26-.77-1.86-1.17a67.48,67.48,0,0,1-13.94-11.9c-1.24-1.37-10.79-16.32-8.75-16.9a87.81,87.81,0,0,1,92,27.79C181.46,396.52,182,397.24,182.6,398Z"/><path class="cls-6" d="M171,378.88a88,88,0,0,0,43.31-90.52c-.34-2.1-16.35,5.53-17.87,6.58a68.64,68.64,0,0,0-13.54,12.38,69.35,69.35,0,0,0-14.69,30.09c-2.53,12.13.22,24.87,2,36.9C170.43,375.84,170.68,377.36,171,378.88Z"/><path class="cls-7" d="M333,113.15a41.75,41.75,0,0,1-.65-44.26c5.23-8.35,13.26-14.5,21.14-20.41,1.61,5.61,4.36,12.13,6,17.74,1.85,6.49,3.72,13.32,2.24,19.91-1.45,6.42-5.92,11.73-10.84,16.11S337.51,108.38,333,113.15Z"/><path class="cls-7" d="M372.22,374.67a33.91,33.91,0,0,1,16.87-31.74c7-3.89,15.1-5.12,23-6.24-1.06,4.62-1.65,10.34-2.71,14.95-1.22,5.35-2.56,10.94-6.19,15s-8.81,6-14,7.22S377.31,373.05,372.22,374.67Z"/><path class="cls-7" d="M78.93,374.67a33.88,33.88,0,0,0-16.86-31.74c-7-3.89-15.11-5.12-23-6.24,1.06,4.62,1.65,10.34,2.7,14.95,1.22,5.35,2.57,10.94,6.2,15s8.81,6,14,7.22S73.85,373.05,78.93,374.67Z"/></g></g></svg>