<svg xmlns="http://www.w3.org/2000/svg" viewBox="0 0 485 392.34"><defs><style>.cls-1{fill:#fff;}.cls-2{fill:#6c92e5;}.cls-3{fill:#4f1f37;}.cls-4{fill:#ffeae8;}.cls-5{fill:#ff9280;}.cls-6{fill:#ffcc7a;}.cls-7{fill:#90d3d0;}.cls-8{fill:#fbf0e8;}</style></defs><g id="Layer_2" data-name="Layer 2"><g id="Layer_1-2" data-name="Layer 1"><path class="cls-1" d="M439.15,392.34a14.46,14.46,0,0,1-3.53-.43c-.56-.14-1.1-.31-1.63-.5H75.16a12.8,12.8,0,0,1-12.55-10.32c-1.73-8.75-3.15-16.77-4.36-24.53-2-13.21-3.38-25.32-4.09-37a252.09,252.09,0,0,1,1.4-48.93,13.74,13.74,0,0,1-3.26.4c-.49,0-1.07,0-1.56-.09a14,14,0,0,1-9.47-5.42c-1.73-2.18-3.38-4.44-4.9-6.74a23.19,23.19,0,0,1-3.44-7.29,19.77,19.77,0,0,1-.35-8c-4.73,2.19-9.14,4.39-13.1,6.43a12.69,12.69,0,0,1-5.85,1.42,12.8,12.8,0,0,1-12.11-8.66C-1.6,233.47.19,222.36,6,215c5-6.32,11.45-10.08,16.56-12.64,2.21-1.11,4.46-2.13,6.73-3.07a87.16,87.16,0,0,1-16.62-5.78,23.07,23.07,0,0,1-8.19-6.15,20.55,20.55,0,0,1-3.32-19A31.49,31.49,0,0,1,7.4,157.45c3.49-4.22,8.46-9.34,16-11.31a24.68,24.68,0,0,1,6.28-.8A29.81,29.81,0,0,1,41,147.67a42,42,0,0,1,3.88,1.85,23.43,23.43,0,0,1-.06-15.61c4.51-12.43,18-15.44,22.47-16.42a23.09,23.09,0,0,1,5.18-.65,17.08,17.08,0,0,1,6.06,1.09,18.94,18.94,0,0,1,8,6.18A117.59,117.59,0,0,1,99.1,143.46q1.4-3.41,3-6.74a61,61,0,0,1,10-15.27,23.47,23.47,0,0,1,10.41-6.8,20.25,20.25,0,0,1,4.16-.76c-6-6-9-13-8.32-20.09,1.07-11.82,11.2-20.35,26.41-22.25a97,97,0,0,1,12-.74,117.38,117.38,0,0,1,29.51,4q3.7-5.92,8-11.54a22,22,0,0,1,3-12c3.59-6,9.81-9.62,17.26-10.17,22.45-20.38,50.29-34.17,79-39a146,146,0,0,1,24.26-2,153.63,153.63,0,0,1,70.73,17.5l.84-.82a12.81,12.81,0,0,1,8.88-3.58,13.54,13.54,0,0,1,1.68.11,12.81,12.81,0,0,1,9.29,6.11c1.1,1.84,2.24,3.58,3.36,5.31,3.26,5,6.63,10.2,9.07,16.87l.35.34c1.17,1.15,2.44,2.44,3.66,3.74a151.32,151.32,0,0,1,19.2,25.33,167.65,167.65,0,0,1,8.46,15.67c.39.8.8,1.7,1.22,2.62a206.53,206.53,0,0,1,8.13,20.67,102.69,102.69,0,0,1,9.71,10.5c1.3,1.56,2.62,3.14,4,4.72a12.79,12.79,0,0,1-3.32,19.74l-1.19.65c.14.7.28,1.43.41,2.15l.37,2c1.82,10,3.3,20.45,4.54,32.08.37,3.47.72,6.91,1,10.36,1.11,12.26,2,24.35,2.69,35.93a62.57,62.57,0,0,1,2.92,33.65,39.43,39.43,0,0,1-1.37,5.13c.35,17,.21,34-.4,50.66a62.22,62.22,0,0,1,1.77,30.22,31.09,31.09,0,0,1-4.5,11.5c-.64,7-1.39,14-2.24,21a12.81,12.81,0,0,1-12.7,11.25H444.33A15,15,0,0,1,439.15,392.34Z"/><path class="cls-2" d="M469.24,319.23v0Q468.55,336.68,467,354c-.71,8.24-1.56,16.42-2.56,24.61H75.16c-1.56-7.89-3-15.91-4.26-24-1.84-11.83-3.25-23.84-4-35.82-1.11-18.17-.6-36.34,2.45-53.91a176.79,176.79,0,0,1,9-33c1.88-4.9,4-9.72,6.29-14.39.26-.51.52-1,.79-1.54,1.32-2.62,2.73-5.2,4.22-7.72.39-.66.79-1.34,1.2-2,.64-1.07,1.32-2.13,2-3.18s1.58-2.39,2.37-3.56q3.2-4.63,6.74-9l1-1.15a120.32,120.32,0,0,1,14.5-14.67q3.25-2.82,6.76-5.37c12.83-9.43,27.7-16.31,38.74-27.81a88.24,88.24,0,0,0,13.8-19.77c5.56-10.32,10-21.47,15.59-31.83a.11.11,0,0,1,0-.07A143.11,143.11,0,0,1,207.67,66.9,145.85,145.85,0,0,1,219.48,54C240.33,33.7,267,19.48,295.69,14.64a138.54,138.54,0,0,1,95.25,19,133,133,0,0,1,12.84,9.11l0,0q3.49,2.79,6.74,5.8l0,0c.81.77,1.62,1.54,2.41,2.33,1.15,1.13,2.3,2.3,3.41,3.47a138.55,138.55,0,0,1,17.55,23.18,153.7,153.7,0,0,1,7.85,14.52c.38.79.75,1.58,1.11,2.39a194.71,194.71,0,0,1,8.74,22.78q1.5,4.69,2.82,9.48c.23.84.44,1.67.66,2.5a.65.65,0,0,1,0,.19c.17.56.32,1.11.45,1.69v0c.06.23.15.47.21.7v.06a3.69,3.69,0,0,0,.11.45c.1.47.23.94.34,1.41.38,1.56.75,3.11,1.09,4.67.57,2.45,1.08,4.9,1.57,7.38.3,1.38.58,2.77.84,4.16.12.7.25,1.38.38,2.06,1.88,10.33,3.28,20.73,4.39,31.07.36,3.39.71,6.76,1,10.13q1.7,18.68,2.78,37.49,1,16.83,1.36,33.73Q470.32,291.84,469.24,319.23Z"/><path class="cls-3" d="M301.49,134.8c-.57,1-1.17,2-1.73,3.07q-2.52,4.41-5,8.89c-.6,1-1.2,2.11-1.77,3.15-2.54,4.67-5.06,9.34-7.55,14.06Q274.76,184.31,265,205.14a970.55,970.55,0,0,0-61.89,173.47h-1.59q.83-3.28,1.66-6.54.12-.36.21-.75a971.86,971.86,0,0,1,56.62-159q11.36-24.86,24.13-49.07c2.14-4.09,4.31-8.16,6.55-12.22.92-1.7,1.86-3.43,2.82-5.13q2.66-4.83,5.37-9.62l1.28-2.24a.76.76,0,1,1,1.32.75Z"/><path class="cls-4" d="M264.84,126a374,374,0,0,0-37.09-20.92c-25.39-12.78-53.16-24.38-81.36-20.85-6.69.83-14.65,4-15.26,10.71-.39,4.2,2.45,8,5.62,10.8,7.82,6.88,18.13,10.11,28.18,12.87A565.76,565.76,0,0,0,269.13,137c-2.32-3.83-3.12-7.8-4.9-11.9C264.39,125.48,264.68,125.67,264.84,126Z"/><path class="cls-4" d="M300.33,138.84a344,344,0,0,0-20.61-32.62C265,85.17,247.93,64.1,224.48,55.3c-5.55-2.09-13-2.78-16.2,2.49-2,3.3-1.29,7.62.07,11.22,3.36,8.91,10.13,15.85,16.88,22.29a495.1,495.1,0,0,0,74,58.37c-.28-4.11.68-7.71.93-11.83C300.2,138.2,300.34,138.48,300.33,138.84Z"/><path class="cls-4" d="M267,133.89c-44.8,2.22-91.52,5-127.73,28.8-5.94,3.9-12.11,10.23-9.74,17.81,1.5,4.82,6.22,8.3,10.92,9.45s9.41.41,13.91-.54c21-4.39,40.52-12.91,59.76-21.67q30.1-13.73,59.78-28.28C271.19,137.49,269.61,135.86,267,133.89Z"/><path class="cls-4" d="M338.63,158.86c36.82,9.27,75.19,19.35,103.55,44.6,4.65,4.14,9.34,10.28,6.9,16-1.55,3.64-5.67,5.67-9.62,5.81S431.67,224,428,222.53c-17-7.06-32.61-17.2-47.92-27.49q-24-16.11-47.53-32.84C334.9,161.05,336.3,160,338.63,158.86Z"/><path class="cls-4" d="M309.07,128.9c45.35-2.18,92.76-4,134,15,6.76,3.13,14.26,8.53,13.46,15.93-.51,4.7-4.52,8.45-9,10s-9.34,1.29-14,.83c-22-2.16-43.29-8.35-64.38-14.81q-33-10.09-65.79-21C305.57,132.71,306.81,131,309.07,128.9Z"/><path class="cls-4" d="M277.36,143.63c-40.73,15.79-83.1,32.71-111.22,65.64-4.62,5.4-8.91,13.1-5.08,19.33,2.44,4,7.54,5.7,12.12,5.32s8.74-2.52,12.68-4.76c18.35-10.49,34.46-24.29,50.24-38.24q24.72-21.82,48.83-44.31C282.05,145.62,280.25,144.62,277.36,143.63Z"/><path class="cls-4" d="M292.47,149.85c-37.14,24.93-75.62,51.35-94.54,90.32-3.1,6.39-5.17,15,.68,20.25,3.72,3.35,9.51,3.9,14.11,2.47s8.24-4.48,11.6-7.6C240,240.73,252.41,223.4,264.41,206q18.78-27.22,36.77-54.95C297.9,150.74,295.74,150.16,292.47,149.85Z"/><path class="cls-4" d="M301.32,152.47c-22.38,38.4-45.33,78.72-45.71,122-.07,7.1,1.71,15.76,9.09,18,4.69,1.44,10-.53,13.51-3.79s5.4-7.57,7.07-11.83c7.79-19.88,11.46-40.83,14.78-61.67q5.19-32.64,9.47-65.39C306.5,151,304.35,151.36,301.32,152.47Z"/><path class="cls-4" d="M318.55,161.36c15.2,42.14,30.6,86.28,22.7,128.87-1.29,7-4.74,15.13-12.61,15.88-5,.49-10-2.52-12.89-6.4s-4-8.51-4.86-13c-4-21.06-3.73-42.35-3.09-63.47q1-33.08,3-66.07C313.62,158.85,315.71,159.67,318.55,161.36Z"/><path class="cls-4" d="M333,164.41c31.53,31.75,64.09,65.23,75,107.16,1.78,6.87,2.12,15.71-4.67,19.73-4.31,2.55-10.1,1.95-14.33-.35s-7.2-6-9.89-9.75c-12.55-17.36-21.27-36.79-29.62-56.2q-13.07-30.39-25.24-61.11C327.45,164.22,329.69,164.08,333,164.41Z"/><path class="cls-5" d="M306.89,114.82c-16.22-6.5-32.84-8.42-47.74-3.41-3.49,1.17-6.87,2.73-9.31,5.35-5.93,6.39-2.35,15.14,3.88,22.48,15.71,18.5,38.21,29.83,60.13,35.46,10.15,2.61,20.75,4.13,29.64,1.13C349,174,354,169.8,354,163.57c.12-19.74-20.26-35.32-36.85-44C313.75,117.79,310.33,116.2,306.89,114.82Z"/><path class="cls-3" d="M347,115a50.07,50.07,0,0,0,11.15-2.4,86.85,86.85,0,0,0-10.11-8C348.34,108.29,347.66,111.33,347,115Z"/><path class="cls-1" d="M348.39,71.19a0,0,0,0,0,0,0c-.1.19-.21.4-.33.59-.42.74-.88,1.44-1.33,2.14-3.41,5.11-7.65,9.82-13,12.76a30.19,30.19,0,0,1-19.57,2.94c-4.21-.76-8-3.33-11.65-6.08-.21-.15-.4-.31-.6-.47-1.85-1.4-3.67-2.85-5.47-4.09-5.59-3.87-9.93-9.82-10.87-16.54a18.23,18.23,0,0,1,5.07-15.35,6.87,6.87,0,0,1,.63-.58A14.27,14.27,0,0,1,293.42,45a15.26,15.26,0,0,1,8-2,3.53,3.53,0,0,1,.46,0,17.31,17.31,0,0,1,8.47,2.66,18.39,18.39,0,0,1,2.33,1.78c.12.13.26.25.36.37a20.35,20.35,0,0,1,5.83,11.31h0c.09.46.14.91.2,1.39a.18.18,0,0,1,.05-.07,18.52,18.52,0,0,1,7-5.76,5.4,5.4,0,0,1,.49-.23,31.8,31.8,0,0,1,4.34-1.71,19,19,0,0,1,8.7-.69c.14,0,.28.06.44.09a15,15,0,0,1,3.3,1.07,12.77,12.77,0,0,1,3.68,2.55l.35.37A11.31,11.31,0,0,1,350.56,63,14.89,14.89,0,0,1,348.39,71.19Z"/><path class="cls-3" d="M302.45,83.56c-.21-.15-.4-.31-.6-.47a28.8,28.8,0,0,0-2.78-6c-.82-1.38-1.75-2.75-2.62-4.06a60.8,60.8,0,0,1-4.06-6.67,26.91,26.91,0,0,1-1.81-19.28,6.87,6.87,0,0,1,.63-.58,26.23,26.23,0,0,0,.53,17.24,4.14,4.14,0,0,0,.19.49,19.73,19.73,0,0,0,.86,1.94,60.76,60.76,0,0,0,4,6.62c.88,1.31,1.81,2.69,2.63,4.09A28.14,28.14,0,0,1,302.45,83.56Z"/><path class="cls-3" d="M301.89,43q-.94,3.39-2.22,6.67l-.21.54a70.72,70.72,0,0,1-7.53,14.07l-.07.1-.35-.24a3.5,3.5,0,0,0,.23-.35A70,70,0,0,0,301.43,43,3.53,3.53,0,0,1,301.89,43Z"/><path class="cls-3" d="M308.83,82.87a151.93,151.93,0,0,0-9.53-33.08l.41-.16a152.42,152.42,0,0,1,9.55,33.17Z"/><path class="cls-3" d="M313.05,47.79A56.56,56.56,0,0,1,305.44,66l-.07.1-.37-.24.27-.42a57,57,0,0,0,7.42-18C312.81,47.55,313,47.67,313.05,47.79Z"/><path class="cls-3" d="M319.13,60.43c-1,6.38-3.42,12.49-5.76,18.44l-.4-.17c2.46-6.3,5-12.78,5.91-19.59.09.46.14.91.2,1.39A.18.18,0,0,1,319.13,60.43Z"/><path class="cls-3" d="M329.86,87.61h-.44a70.37,70.37,0,0,0-2-12.71c-.47-2.21-1-4.48-1.33-6.74a48.67,48.67,0,0,1-.61-5.58c0-.21,0-.42,0-.63a28,28,0,0,1,.63-7.28,5.4,5.4,0,0,1,.49-.23,34.47,34.47,0,0,0-.07,13.65c.12.79.28,1.59.44,2.38,0,.18.07.37.1.54.27,1.28.55,2.54.81,3.78s.59,2.73.86,4.12a3.58,3.58,0,0,1,.08.49A51.2,51.2,0,0,1,329.86,87.61Z"/><path class="cls-3" d="M340.08,52.13c-.39.81-.79,1.59-1.21,2.38-.12.23-.25.44-.37.65A80.68,80.68,0,0,1,327.07,71l-.08.09-.32-.3a3.08,3.08,0,0,0,.3-.33A78.35,78.35,0,0,0,339.64,52C339.78,52.08,339.92,52.1,340.08,52.13Z"/><path class="cls-3" d="M317.11,79.16,316.7,79a64.6,64.6,0,0,1,8.72-17.1l.35.26A64.45,64.45,0,0,0,317.11,79.16Z"/><path class="cls-3" d="M347.41,56.12a38.05,38.05,0,0,1-6,11,57.66,57.66,0,0,1-5.92,6.5l-.51.47c-2.08,2-4.2,3.75-6.16,5.34l-.28-.33.2-.16c1.94-1.58,4-3.31,6-5.25a.07.07,0,0,0,0,0,58.17,58.17,0,0,0,6.25-6.81l.15-.19c.11-.14.21-.3.34-.44a37.12,37.12,0,0,0,5.51-10.45Z"/><path class="cls-3" d="M341.25,66.8c-.27-1-.53-2-.79-3a68,68,0,0,1-2-9.34l.44,0a67.35,67.35,0,0,0,2,9.27c.26,1,.53,2,.79,3Z"/><path class="cls-3" d="M348.37,71.21c-.1.19-.21.4-.33.59a26.83,26.83,0,0,1-8.87,2.07c-.55,0-1.11,0-1.67,0-.82,0-1.68,0-2.52.14l-.17,0,0-.42v0h0a3.89,3.89,0,0,1,.68,0c.68-.07,1.35-.09,2-.11s1.11,0,1.65,0A26.85,26.85,0,0,0,348.37,71.21Z"/><path class="cls-6" d="M338.05,127A27,27,0,0,1,328,128.26c-1.05,0-2.12-.09-3.17-.16-3.23-.21-6.45-.49-9.69-.87-3.07-.33-6.13-.75-9.17-1.24a1.26,1.26,0,0,0-.27,0,103,103,0,0,1-10.5-2.17c-6.16-1.68-12-4.15-16.94-8.16-7.73-6.33-12.34-17.43-8.43-26.61,2.62-6.18,8.57-10.43,14.93-12.61a66.41,66.41,0,0,1,14.45-3.11,64.4,64.4,0,0,1,10.1-.28,53,53,0,0,1,10.94,1.59,40,40,0,0,1,5,1.58A52.87,52.87,0,0,1,333.13,80c7.38,4.36,13.61,10.55,16.41,18.53C353.31,109.27,348.74,123.2,338.05,127Z"/><path class="cls-3" d="M310.46,108.52c-.61,6-1.75,12.23-4.76,17.43a103,103,0,0,1-10.5-2.17,70.24,70.24,0,0,0,4-50.49,64.4,64.4,0,0,1,10.1-.28C311.71,84.51,311.6,97,310.46,108.52Z"/><path class="cls-3" d="M334.69,108.45A53.32,53.32,0,0,1,328,128.26c-1.05,0-2.12-.09-3.17-.16-3.23-.21-6.45-.49-9.69-.87a71.78,71.78,0,0,0,5.11-52.63,40,40,0,0,1,5,1.58A52.87,52.87,0,0,1,333.13,80,92.45,92.45,0,0,1,334.69,108.45Z"/><circle class="cls-3" cx="285.15" cy="95.64" r="3.32"/><path class="cls-7" d="M203.34,372.18C185.26,358.44,174,337,169.6,314.72s-2.3-45.42,2.66-67.58c15.31,6.09,26.13,17.3,32,32.7s6.84,32.25,6,48.7S204.09,355.72,203.34,372.18Z"/><path class="cls-7" d="M354.22,314a100.39,100.39,0,0,1-22.15,30.52c-.6.59-1.24,1.19-1.88,1.75a140.27,140.27,0,0,1-32.9,22.09,189.28,189.28,0,0,1-25.69,10.23H228.07c19.58-28,49.15-48.77,81.91-58.49,1.85-.55,3.71-1.07,5.61-1.56,2.9-.74,5.82-1.38,8.76-2l2.09-.38A141.26,141.26,0,0,1,354.22,314Z"/><path class="cls-3" d="M182.44,378.61h-1.58c-16.16-53.37-36.18-108.83-69.43-155.51-1.34-1.88-2.71-3.76-4.09-5.61h0a.82.82,0,0,0-.11-.17l-.34-.47-.15-.19c0-.07-.11-.13-.17-.22a3.61,3.61,0,0,0-.32-.42s0,0,0,0l-.9-1.16a.27.27,0,0,0-.1-.12c-2.56-3.39-5.23-6.72-8-10a.78.78,0,0,1,.09-1.09.75.75,0,0,1,.78-.11.69.69,0,0,1,.3.21c2.18,2.61,4.29,5.23,6.36,7.89.4.49.79,1,1.15,1.5s.7.87,1,1.32c.19.23.39.49.56.72a.49.49,0,0,0,.13.15c1.68,2.24,3.34,4.5,4.94,6.78C146.08,269.09,166.21,324.9,182.44,378.61Z"/><path class="cls-6" d="M108.3,217.69c-16.14-3.35-33-1.93-49,2.24s-31.06,11-45.71,18.56C12,233.64,12.89,226.9,16,222.87s7.65-6.8,12.23-9.09a84.54,84.54,0,0,1,41-9.17C83.41,205.18,96.93,209.26,108.3,217.69Z"/><path class="cls-6" d="M88.36,205A239.57,239.57,0,0,0,44,189.59c-8.72-2.09-17.67-3.72-25.74-7.62a10.88,10.88,0,0,1-3.82-2.68,7.94,7.94,0,0,1-1-7.23,19.4,19.4,0,0,1,3.9-6.46c2.54-3.07,5.53-6.07,9.38-7.09a15.18,15.18,0,0,1,9.49,1c4.19,1.71,7.81,4.56,11.36,7.38,10,7.91,19.95,15.83,29.79,23.91,9.14,7.52,21.18,15.26,28.38,24.67A75.08,75.08,0,0,0,88.36,205Z"/><path class="cls-6" d="M60.16,151.8c-2.55-4.08-5-9-3.35-13.52,1.86-5.12,7.91-7.12,13.23-8.3a6.83,6.83,0,0,1,3.9-.09,6.79,6.79,0,0,1,2.63,2.26c9.89,12.25,16.56,26.87,21.09,42,4.08,13.59,7.38,28.24,8.6,42.38C93.15,193.3,74.23,174.33,60.16,151.8Z"/><path class="cls-6" d="M113.62,142.32a47.91,47.91,0,0,1,7.86-12.11,9,9,0,0,1,9.58-3.36,29.25,29.25,0,0,1,13.31,6,6.4,6.4,0,0,1,2.63,3.64c.38,2.37-1.62,4.37-3.37,6-10.89,10.18-23.53,24.72-29.19,38.51-5,12.29-5.89,22.84-7,36.63-3.41-3-3.54-13.56-4-18a108.89,108.89,0,0,1-.09-19.86A107,107,0,0,1,113.62,142.32Z"/><path class="cls-6" d="M58.81,229c-5.19,3.42-10.19,7.63-12.66,13.33a9.5,9.5,0,0,0-.83,6A11.63,11.63,0,0,0,47,251.7q2,3,4.25,5.84a1.57,1.57,0,0,0,.93.68c.54.06,1-.45,1.27-.89a99.44,99.44,0,0,1,10-11.48,160.9,160.9,0,0,1,13.91-13.23,79.77,79.77,0,0,1,14.39-9.28,78.85,78.85,0,0,1,8.22-3.58c1.37-.51,6.69-1.37,7.3-2.62,2-4.19-11.67-1.88-13.17-1.65a88.21,88.21,0,0,0-17.3,4.42A87.1,87.1,0,0,0,58.81,229Z"/><path class="cls-6" d="M106.63,217.65a68,68,0,0,1,15.11-38.27c6.08-7.42,14.24-13.7,23.54-15.65a6.41,6.41,0,0,1,5.82,1.82l.08.09a6.46,6.46,0,0,1-1.41,10.16c-.65.37-1.31.74-2,1.09-7.22,3.79-14.51,7.63-20.68,13-6.44,5.58-11.44,12.62-16.06,19.78C109.25,212.42,107.31,214.41,106.63,217.65Z"/><path class="cls-3" d="M89.7,224.33a7.63,7.63,0,0,1,5.71-11c-.8-2-1.58-3.77-1.41-5.9a8,8,0,0,1,12.55-5.86,4.86,4.86,0,0,1,3.12-3.38,9.06,9.06,0,0,1,3.81,0,4.38,4.38,0,0,1,2.9,2.6c-1.45,7.37-2.55,14.87-4,22.24C105.22,223.29,96.8,223.34,89.7,224.33Z"/><path class="cls-3" d="M445.73,279.13c-.53,4.18-1.42,8.41-3.55,12.05-.76,1.29-2.05,2.65-3.5,2.29a3.61,3.61,0,0,1-2.12-2.33c-2.31-5.38-2.34-11.43-2.12-17.28.17-4.5,1.53-33.47,6.8-31.52C448.48,245,446.46,273.46,445.73,279.13Z"/><path class="cls-3" d="M423.29,270.47c-2.65,3.28-5.63,6.41-9.36,8.38-1.32.7-3.13,1.18-4.18.11a3.61,3.61,0,0,1-.57-3.09c.86-5.79,4-10.95,7.28-15.81,2.51-3.75,18.9-27.67,22.35-23.24C443.56,242.91,426.89,266,423.29,270.47Z"/><path class="cls-3" d="M405.55,257.46c-3.93,1.53-8.07,2.77-12.28,2.63-1.5,0-3.31-.52-3.69-2a3.63,3.63,0,0,1,1-3c3.62-4.6,8.92-7.52,14.16-10.12,4-2,30.13-14.66,30.93-9.1C436.82,243.58,410.88,255.39,405.55,257.46Z"/><path class="cls-3" d="M398,230.79c-3.81-1.8-7.56-3.94-10.37-7.09-1-1.11-1.9-2.76-1.11-4a3.61,3.61,0,0,1,2.86-1.3c5.83-.54,11.6,1.29,17.1,3.29,4.24,1.54,31.39,11.73,27.91,16.14C429.62,243.87,403.19,233.22,398,230.79Z"/><path class="cls-3" d="M438.71,230.71c-1.45,1.24-2.9,2.5-4.33,3.77a.71.71,0,0,0-.15.15,5,5,0,0,0-.49.43c-1.66,1.49-3.3,3-4.9,4.56l0,0c-2,1.9-4,3.84-5.89,5.85l0,0c-2.18,2.24-4.33,4.52-6.44,6.89v0q-5.37,5.94-10.49,12.47a304.9,304.9,0,0,0-18.06,25.46c-.73,1.13-1.43,2.26-2.14,3.39-1.66,2.63-3.28,5.29-4.9,8-1,1.73-2.11,3.71-3.33,5.91-6.74,12.45-16.05,32.35-25.41,54.91-2.16,5.22-4.33,10.57-6.44,16h-2.27q2.63-6.78,5.31-13.35c9.49-23.18,19.09-43.84,26.13-57.12v0c1.53-2.84,2.9-5.34,4.18-7.45,1.91-3.22,3.81-6.39,5.77-9.46.45-.71.9-1.41,1.35-2.09a312.66,312.66,0,0,1,19-26.66c2.07-2.6,4.18-5.14,6.29-7.59l0,0c3.28-3.82,6.59-7.44,10-10.92,1.47-1.53,2.92-3,4.44-4.46l0,0c1.64-1.6,3.28-3.15,5-4.69l0,0c.38-.36.79-.72,1.19-1.07l0,0c.64-.59,1.26-1.17,1.94-1.75,1.09-1,2.18-1.89,3.24-2.81a1.07,1.07,0,0,1,1.39,1.62Z"/><path class="cls-5" d="M462.93,220.5c7.51,11.26,11,25.38,8.41,38.66-.64,3.21-1.72,6.51-4.16,8.69-5.45,4.86-14.06,1.68-20.22-2.24a122.64,122.64,0,0,1-37.78-38c-3.9-6.2-7.34-13.71-4.94-20.63,1.75-5,6.41-8.68,11.53-10.15C434.75,191.38,452.92,205.48,462.93,220.5Z"/><path class="cls-3" d="M445.73,365.15c-.53,4.18-1.42,8.41-3.55,12.05-.76,1.29-2.05,2.65-3.5,2.29a3.61,3.61,0,0,1-2.12-2.33c-2.31-5.38-2.34-11.43-2.12-17.28.17-4.5,1.53-33.47,6.8-31.51C448.48,331.05,446.46,359.48,445.73,365.15Z"/><path class="cls-3" d="M423.29,356.49c-2.65,3.28-5.63,6.41-9.36,8.38-1.32.7-3.13,1.18-4.18.11a3.61,3.61,0,0,1-.57-3.09c.86-5.79,4-10.95,7.28-15.81,2.51-3.75,18.9-27.67,22.35-23.24C443.56,328.93,426.89,352.05,423.29,356.49Z"/><path class="cls-3" d="M405.55,343.48c-3.93,1.53-8.07,2.77-12.28,2.64-1.5-.05-3.31-.53-3.69-2a3.63,3.63,0,0,1,1-3c3.62-4.6,8.92-7.52,14.16-10.12,4-2,30.13-14.66,30.93-9.1C436.82,329.6,410.88,341.41,405.55,343.48Z"/><path class="cls-3" d="M398,316.81c-3.81-1.8-7.56-3.94-10.37-7.08-1-1.12-1.9-2.76-1.11-4a3.6,3.6,0,0,1,2.86-1.29c5.83-.55,11.6,1.28,17.1,3.28,4.24,1.54,31.39,11.73,27.91,16.14C429.62,329.89,403.19,319.24,398,316.81Z"/><path class="cls-3" d="M438.71,316.73c-1.45,1.24-2.9,2.5-4.33,3.77a.71.71,0,0,0-.15.15c-.17.15-.34.28-.49.43l0,0c-1.66,1.49-3.28,3-4.88,4.54l0,0c-2,1.89-4,3.83-5.89,5.84l0,0c-2.18,2.24-4.33,4.52-6.44,6.89v0a289.86,289.86,0,0,0-30,40.17H384c.28-.47.56-.92.85-1.38a307.08,307.08,0,0,1,26.62-36.32l0,0q4.92-5.73,10-10.94c1.47-1.53,2.92-3,4.44-4.46l0,0c1.64-1.6,3.28-3.15,5-4.69l0,0c.38-.36.79-.72,1.19-1.07.64-.59,1.28-1.19,2-1.77,1.09-1,2.18-1.89,3.24-2.81a1.07,1.07,0,0,1,1.39,1.62Z"/><path class="cls-5" d="M462.93,306.52c7.51,11.26,11,25.39,8.41,38.66-.64,3.21-1.72,6.52-4.16,8.69-5.45,4.86-14.06,1.68-20.22-2.24a122.64,122.64,0,0,1-37.78-38c-3.9-6.2-7.34-13.71-4.94-20.63,1.75-5,6.41-8.68,11.53-10.15C434.75,277.41,452.92,291.51,462.93,306.52Z"/><path class="cls-3" d="M280.56,307.8c-1.15,4.05-2,8.29-1.47,12.47.19,1.49.84,3.24,2.32,3.49a3.63,3.63,0,0,0,2.86-1.32c4.24-4,6.64-9.59,8.74-15.05,1.61-4.21,11.74-31.38,6.13-31.66C291.43,275.36,282.12,302.29,280.56,307.8Z"/><path class="cls-3" d="M304.59,308.65c1.16,4.06,2.67,8.1,5.32,11.38.94,1.17,2.42,2.32,3.8,1.75a3.6,3.6,0,0,0,1.74-2.62c1.48-5.66.61-11.65-.48-17.4-.84-4.43-6.51-32.87-11.43-30.15C296.78,275.35,303,303.15,304.59,308.65Z"/><path class="cls-3" d="M326,303.66c3,2.95,6.33,5.71,10.26,7.24,1.4.55,3.25.82,4.17-.37a3.63,3.63,0,0,0,.21-3.13c-1.52-5.66-5.25-10.42-9.05-14.88-2.92-3.43-21.95-25.31-24.87-20.51C302.72,278.61,321.93,299.65,326,303.66Z"/><path class="cls-3" d="M343.43,282.09c4.21-.15,8.5-.65,12.32-2.44,1.36-.64,2.83-1.79,2.61-3.28a3.63,3.63,0,0,0-2.13-2.31c-5.14-2.79-11.16-3.38-17-3.7-4.5-.24-33.47-1.54-32,3.88C309.22,281.7,337.71,282.29,343.43,282.09Z"/><path class="cls-3" d="M324.35,316.6q-1.53-6.27-3.33-12.26-1.44-4.89-3-9.59v0c-1-3-2.09-6-3.22-8.87v0c-1-2.62-2-5.18-3.13-7.72q-1.31-3.11-2.71-6.12v0a4.78,4.78,0,0,0-.23-.45l-.07-.12a.72.72,0,0,0-.08-.22c-.81-1.72-1.64-3.45-2.5-5.14a1.11,1.11,0,0,1,.49-1.45,1.06,1.06,0,0,1,1.41.49c.06.13.13.26.21.41.56,1.13,1.13,2.28,1.67,3.45.4.79.76,1.6,1.11,2.39.25.49.47,1,.68,1.45,0,0,0,0,0,0,1,2.07,1.83,4.16,2.73,6.27v0c.83,1.94,1.6,3.85,2.34,5.84v0q2.65,6.78,4.91,13.94v0c.68,2.15,1.34,4.33,2,6.52q1.53,5.28,2.88,10.75c2.09,8.46,3.88,17.31,5.37,26.61.09.58.2,1.13.26,1.71.51,3,.94,6.12,1.36,9.27.32,2.45.62,5.27.9,8.49v0c.4,4.71.75,10.19,1,16.29H333.2c-.3-6.76-.68-12.77-1.15-17.78-.26-2.5-.49-4.76-.75-6.74-.34-2.64-.7-5.25-1.11-7.8-.08-.52-.15-1-.23-1.5Q327.68,330,324.35,316.6Z"/><path class="cls-5" d="M287.77,247.12c-11.33,7.4-20.12,19-22.91,32.25-.68,3.2-1,6.67.41,9.63,3.1,6.61,12.26,7.06,19.46,5.88a122.54,122.54,0,0,0,49.66-20.07c6-4.16,12.14-9.72,12.65-17,.37-5.31-2.49-10.5-6.61-13.87C325.12,231.42,302.88,237.25,287.77,247.12Z"/><path class="cls-7" d="M382.14,106.58c-9.58-11.67-11.69-28.31-7.83-42.91s13.09-27.3,24-37.77c4.18,7,8.82,12.73,11.54,20.4s3.87,16.12,1.79,24c-1.67,6.34-5.34,12-9.23,17.26C396.28,95.84,389.56,99.45,382.14,106.58Z"/><path class="cls-7" d="M385.07,125.32c8.33,12.59,23.62,19.5,38.7,20.1s29.94-4.47,43.15-11.78c-5.44-6-9.57-12.17-16.1-17s-14.27-8.44-22.4-8.77c-6.56-.27-13,1.58-19.22,3.74C399.49,115,394.06,120.33,385.07,125.32Z"/><path class="cls-7" d="M124.29,330.22c-13.78-6.17-23.09-20.13-26.14-34.91s-.47-30.27,4.59-44.5c6.86,4.38,13.57,7.47,19.43,13.12s10.65,12.69,12.3,20.66c1.33,6.43.57,13.1-.56,19.57C132.15,314.3,127.75,320.53,124.29,330.22Z"/><path class="cls-7" d="M117.4,343.07c-13.22,7.31-28.06,12.38-43.16,11.79-1.11-.05-2.24-.13-3.34-.26-1.84-11.83-3.25-23.84-4-35.82a40.37,40.37,0,0,1,12-1.52c8.13.34,15.87,3.93,22.39,8.77S112,337,117.4,343.07Z"/><path class="cls-8" d="M314.69,32.45c-.69,1.5-3.64,1.62-6.58.27s-4.75-3.68-4.06-5.19,3.64-1.62,6.58-.26S315.39,31,314.69,32.45Z"/><path class="cls-8" d="M332.24,29.22c-.69,1.51-3.64,1.63-6.58.27s-4.75-3.68-4.06-5.18,3.64-1.63,6.58-.27S332.94,27.72,332.24,29.22Z"/><path class="cls-8" d="M344.09,40.37c-.69,1.5-3.64,1.62-6.57.26s-4.76-3.67-4.06-5.18,3.64-1.62,6.57-.27S344.79,38.86,344.09,40.37Z"/><path class="cls-8" d="M240.41,320.47c-1,1.07-3.51.35-5.6-1.61s-3-4.43-2-5.5,3.52-.34,5.61,1.62S241.42,319.41,240.41,320.47Z"/><path class="cls-8" d="M256.06,322.68c-1,1.07-3.51.34-5.6-1.62s-3-4.42-2-5.49,3.52-.35,5.6,1.62S257.07,321.61,256.06,322.68Z"/><path class="cls-8" d="M262.9,335.36c-1,1.07-3.51.35-5.6-1.61s-3-4.43-2-5.5,3.51-.34,5.6,1.62S263.91,334.29,262.9,335.36Z"/><path class="cls-8" d="M150.25,238.11c1.74-.16,3.4,2.46,3.71,5.85s-.85,6.26-2.59,6.42-3.39-2.46-3.7-5.85S148.52,238.26,150.25,238.11Z"/><path class="cls-8" d="M138.09,223.82c1.74-.16,3.4,2.46,3.7,5.85s-.85,6.27-2.58,6.42-3.39-2.46-3.7-5.85S136.36,224,138.09,223.82Z"/><path class="cls-8" d="M142,207.17c1.74-.16,3.39,2.46,3.7,5.85s-.85,6.26-2.58,6.42-3.4-2.46-3.7-5.85S140.28,207.33,142,207.17Z"/></g></g></svg>