<svg id="Layer_1" data-name="Layer 1" xmlns="http://www.w3.org/2000/svg" viewBox="0 0 960 1080">
    <defs>
        <style>
            .cls-1 {
                fill: #ffcce0;
            }

            .cls-2 {
                fill: #910051;
            }

            .cls-3 {
                fill: #6a0038;
            }

            .cls-4 {
                fill: #aa000d;
            }

            .cls-5 {
                fill: #ffb2b4;
            }
        </style>
    </defs>
    <polygon class="cls-1" points="-0.5 0.5 960 0.5 960 1080 0 1080 -0.5 0.5" />
    <path class="cls-2"
        d="M538,865c25.71,14.16,59.63,38.32,81,79,10.51,20,11.09,30.89,20,49,12.78,26,39,59.34,99,87H0V731L274,552l112,44Z" />
    <path class="cls-3"
        d="M117.2.5C99.71,59.21,86.81,143,129.41,219.5c46.5,83.5,116.55,81.88,158.78,164,44.15,85.85,23.81,197-35.53,278C164.79,781.5,19.2,797.63-.5,799.5V.5Z" />
    <circle class="cls-3" cx="480" cy="431.44" r="234" />
    <circle class="cls-2" cx="486" cy="680.44" r="96" />
    <path class="cls-2" d="M556,822.44c0,37,4.08,57.82-67,60-65,2-67-23-67-60a67,67,0,0,1,134,0Z" />
    <path class="cls-2"
        d="M259.16,564.3a344.5,344.5,0,0,1,46.38,15.23,291.19,291.19,0,0,1,44.25,22.23,186.38,186.38,0,0,1,20.77,14.94c3.34,2.88,6.5,5.65,9.61,8.58,1.54,1.48,3.11,2.93,4.6,4.47s3,3,4.48,4.61A221,221,0,0,1,420,676a253.31,253.31,0,0,1,20.93,47.74,304.67,304.67,0,0,1,11.6,50.81,360.85,360.85,0,0,1,3.53,52c0,8.7-.36,17.41-1,26.18q-.5,6.57-1.25,13.22c-.25,2.23-.54,4.46-.86,6.73s-.66,4.53-1.13,7.09L386.2,863.2c.5-1.32,1.05-3,1.56-4.59s1-3.31,1.51-5c1-3.41,1.9-6.89,2.76-10.4,1.72-7,3.19-14.21,4.42-21.43A304.82,304.82,0,0,0,400.7,778c.69-29.35-3.22-58.83-13.41-86.4a189,189,0,0,0-20.12-39.37c-1-1.57-2.11-3.07-3.19-4.6s-2.21-3-3.33-4.51c-2.26-3-4.66-5.94-7-8.63a162.49,162.49,0,0,0-16.21-15.5,272.88,272.88,0,0,0-38.21-26.41,329.75,329.75,0,0,0-42.34-20.83Z" />
    <path class="cls-2"
        d="M695.47,578.14c-27.83,11.37-53.08,27.91-73,48.81a183.08,183.08,0,0,0-13.94,16.4c-2.27,2.75-4.18,5.78-6.21,8.69s-3.83,6-5.68,9a192,192,0,0,0-17.28,38.32,213.83,213.83,0,0,0-8.92,40.87,266.1,266.1,0,0,0-1.69,41.87,309.91,309.91,0,0,0,4.49,41.72c1.21,6.87,2.64,13.7,4.3,20.39.82,3.34,1.71,6.65,2.65,9.89.46,1.61,1,3.22,1.44,4.76.25.77.5,1.56.75,2.28l.37,1.09.37,1-65.6,16.49-.31-1.78-.28-1.69c-.19-1.13-.33-2.2-.49-3.29-.31-2.18-.59-4.31-.83-6.43-.5-4.24-.9-8.44-1.23-12.62-.65-8.36-1-16.67-1.08-25a366.2,366.2,0,0,1,2.85-49.57,314.64,314.64,0,0,1,10.12-48.63,253.82,253.82,0,0,1,18.43-46.17,224.62,224.62,0,0,1,27.41-41.15c2.69-3.11,5.26-6.29,8.18-9.18s5.58-6,8.65-8.65a207.15,207.15,0,0,1,18.54-15.68,222.42,222.42,0,0,1,20-13.33,230.39,230.39,0,0,1,21.17-10.93,236.22,236.22,0,0,1,44.48-14.87Z" />
    <path class="cls-4" d="M437.37,362.39a54.47,54.47,0,0,0-96.58,10.15,54.45,54.45,0,1,1,96.58-10.15Z" />
    <path class="cls-4" d="M503.32,447.52a21.23,21.23,0,0,0-37.63,4,21.22,21.22,0,1,1,37.63-4Z" />
    <path class="cls-4"
        d="M457.68,506.51a18.18,18.18,0,0,0-2.44-3,18.38,18.38,0,0,0-30.17,6.44,18.39,18.39,0,1,1,32.61-3.43Z" />
    <path class="cls-4" d="M594,345.4a57.29,57.29,0,0,0-101.59,10.68A57.28,57.28,0,1,1,594,345.4Z" />
    <path class="cls-4"
        d="M689.35,452.57a37.64,37.64,0,0,0-4.86-6,36.8,36.8,0,0,0-60.36,12.87,36.77,36.77,0,1,1,65.22-6.86Z" />
    <path class="cls-4" d="M390.14,507.67a62.26,62.26,0,0,0-110.38,11.6,62.23,62.23,0,1,1,110.38-11.6Z" />
    <path class="cls-4" d="M549.69,561.32a36.08,36.08,0,0,0-64,6.73,36.07,36.07,0,1,1,64-6.73Z" />
    <path class="cls-4"
        d="M582.78,465.53a24.87,24.87,0,0,0-3.37-4.16,25.46,25.46,0,0,0-41.78,8.91,25.46,25.46,0,1,1,45.15-4.75Z" />
    <path class="cls-2"
        d="M425,381.44a54.49,54.49,0,0,1-84.21-8.9,54.47,54.47,0,0,1,96.58-10.15A54.17,54.17,0,0,1,425,381.44Z" />
    <path class="cls-2"
        d="M498.5,454.94a21.2,21.2,0,0,1-30,0,20.94,20.94,0,0,1-2.81-3.47,21.23,21.23,0,0,1,37.63-4A21.06,21.06,0,0,1,498.5,454.94Z" />
    <path class="cls-2"
        d="M453.5,512.94a18.39,18.39,0,0,1-28.43-3,18.4,18.4,0,0,1,32.61-3.43A18.34,18.34,0,0,1,453.5,512.94Z" />
    <path class="cls-2"
        d="M581,365.44a57.31,57.31,0,0,1-88.58-9.36A57.29,57.29,0,0,1,594,345.4,56.94,56.94,0,0,1,581,365.44Z" />
    <path class="cls-2"
        d="M681,465.44a36.77,36.77,0,0,1-52,0,36.32,36.32,0,0,1-4.87-6,36.8,36.8,0,0,1,60.36-12.87,37.64,37.64,0,0,1,4.86,6A36.55,36.55,0,0,1,681,465.44Z" />
    <path class="cls-2"
        d="M376,529.44a62.28,62.28,0,0,1-96.24-10.17,62.25,62.25,0,0,1,110.38-11.6A62,62,0,0,1,376,529.44Z" />
    <path class="cls-2"
        d="M541.5,573.94a36.05,36.05,0,0,1-51,0,36.8,36.8,0,0,1-4.78-5.89,36.07,36.07,0,0,1,64-6.73A35.75,35.75,0,0,1,541.5,573.94Z" />
    <path class="cls-2"
        d="M577,474.44a25.44,25.44,0,0,1-36,0,25,25,0,0,1-3.37-4.16,25.46,25.46,0,0,1,41.78-8.91,24.87,24.87,0,0,1,3.37,4.16A25.24,25.24,0,0,1,577,474.44Z" />
    <circle class="cls-5" cx="246.5" cy="85.5" r="64" />
    <circle class="cls-5" cx="479.5" cy="79.5" r="35" />
    <circle class="cls-5" cx="671.5" cy="699.5" r="34" />
    <circle class="cls-5" cx="705.5" cy="921.5" r="66" />
    <circle class="cls-5" cx="864.5" cy="970.5" r="40" />
    <circle class="cls-5" cx="814.5" cy="765.5" r="11" />
    <circle class="cls-5" cx="795.5" cy="481.5" r="66" />
    <circle class="cls-5" cx="861.5" cy="622.5" r="43" />
    <circle class="cls-5" cx="738.5" cy="206.5" r="61" />
    <circle class="cls-5" cx="837.5" cy="44.5" r="27" />
    <circle class="cls-5" cx="884.5" cy="249.5" r="62" />
    <circle class="cls-5" cx="597.5" cy="56.5" r="29" />
    <circle class="cls-5" cx="568.5" cy="149.5" r="21" />
    <circle class="cls-5" cx="230.5" cy="227.5" r="31" />
</svg>