<svg id="Layer_1" data-name="Layer 1" xmlns="http://www.w3.org/2000/svg" viewBox="0 0 1366 384"><defs><style>.cls-1{fill:#ffe2cc;}.cls-2{font-size:126.09px;fill:#bb0039;font-family:MyriadPro-Regular, Myriad Pro;}.cls-3{fill:#dd004a;}</style></defs><rect class="cls-1" x="62" y="62" width="1242" height="260"/><rect width="62" height="384"/><rect x="1304" width="62" height="384"/><rect x="62" width="1242" height="62"/><rect x="62" y="322" width="1242" height="62"/><text class="cls-2" transform="translate(424.59 229.01)">SALE 30%</text><rect class="cls-3" x="62" width="46" height="62"/><rect x="108" width="46" height="62"/><rect class="cls-3" x="154" width="46" height="62"/><rect x="200" width="46" height="62"/><rect class="cls-3" x="246" width="46" height="62"/><rect x="292" width="46" height="62"/><rect class="cls-3" x="338" width="46" height="62"/><rect x="384" width="46" height="62"/><rect class="cls-3" x="430" width="46" height="62"/><rect x="476" width="46" height="62"/><rect class="cls-3" x="522" width="46" height="62"/><rect x="568" width="46" height="62"/><rect class="cls-3" x="614" width="46" height="62"/><rect x="660" width="46" height="62"/><rect class="cls-3" x="706" width="46" height="62"/><rect x="752" width="46" height="62"/><rect class="cls-3" x="798" width="46" height="62"/><rect x="844" width="46" height="62"/><rect class="cls-3" x="890" width="46" height="62"/><rect x="936" width="46" height="62"/><rect class="cls-3" x="982" width="46" height="62"/><rect x="1028" width="46" height="62"/><rect class="cls-3" x="1074" width="46" height="62"/><rect x="1120" width="46" height="62"/><rect class="cls-3" x="1166" width="46" height="62"/><rect x="1212" width="46" height="62"/><rect class="cls-3" x="1258" width="46" height="62"/><rect x="62" y="322" width="46" height="62"/><rect class="cls-3" x="108" y="322" width="46" height="62"/><rect x="154" y="322" width="46" height="62"/><rect class="cls-3" x="200" y="322" width="46" height="62"/><rect x="246" y="322" width="46" height="62"/><rect class="cls-3" x="292" y="322" width="46" height="62"/><rect x="338" y="322" width="46" height="62"/><rect class="cls-3" x="384" y="322" width="46" height="62"/><rect x="430" y="322" width="46" height="62"/><rect class="cls-3" x="476" y="322" width="46" height="62"/><rect x="522" y="322" width="46" height="62"/><rect class="cls-3" x="568" y="322" width="46" height="62"/><rect x="614" y="322" width="46" height="62"/><rect class="cls-3" x="660" y="322" width="46" height="62"/><rect x="706" y="322" width="46" height="62"/><rect class="cls-3" x="752" y="322" width="46" height="62"/><rect x="798" y="322" width="46" height="62"/><rect class="cls-3" x="844" y="322" width="46" height="62"/><rect x="890" y="322" width="46" height="62"/><rect class="cls-3" x="936" y="322" width="46" height="62"/><rect x="982" y="322" width="46" height="62"/><rect class="cls-3" x="1028" y="322" width="46" height="62"/><rect x="1074" y="322" width="46" height="62"/><rect class="cls-3" x="1120" y="322" width="46" height="62"/><rect x="1166" y="322" width="46" height="62"/><rect class="cls-3" x="1212" y="322" width="46" height="62"/><rect x="1258" y="322" width="46" height="62"/><rect class="cls-3" x="1312" y="330" width="46" height="62" transform="translate(1696 -974) rotate(90)"/><rect x="1312" y="284" width="46" height="62" transform="translate(1650 -1020) rotate(90)"/><rect class="cls-3" x="1312" y="238" width="46" height="62" transform="translate(1604 -1066) rotate(90)"/><rect x="1312" y="192" width="46" height="62" transform="translate(1558 -1112) rotate(90)"/><rect class="cls-3" x="1312" y="146" width="46" height="62" transform="translate(1512 -1158) rotate(90)"/><rect x="1312" y="100" width="46" height="62" transform="translate(1466 -1204) rotate(90)"/><rect class="cls-3" x="1312" y="54" width="46" height="62" transform="translate(1420 -1250) rotate(90)"/><rect x="1304" width="62" height="62" transform="translate(1366 -1304) rotate(90)"/><rect class="cls-3" x="8" y="330" width="46" height="62" transform="translate(392 330) rotate(90)"/><rect x="8" y="284" width="46" height="62" transform="translate(346 284) rotate(90)"/><rect class="cls-3" x="8" y="238" width="46" height="62" transform="translate(300 238) rotate(90)"/><rect x="8" y="192" width="46" height="62" transform="translate(254 192) rotate(90)"/><rect class="cls-3" x="8" y="146" width="46" height="62" transform="translate(208 146) rotate(90)"/><rect x="8" y="100" width="46" height="62" transform="translate(162 100) rotate(90)"/><rect class="cls-3" x="8" y="54" width="46" height="62" transform="translate(116 54) rotate(90)"/><rect width="62" height="62" transform="translate(62 0) rotate(90)"/></svg>