<svg id="Layer_1" data-name="Layer 1" xmlns="http://www.w3.org/2000/svg" viewBox="0 0 910.67 307.2"><defs><style>.cls-1{fill:#ffd277;}.cls-2{fill:none;}.cls-2,.cls-3{stroke:#000;stroke-miterlimit:10;}.cls-3,.cls-4,.cls-5{fill:#fff;}.cls-4{opacity:0.19;isolation:isolate;}</style></defs><rect class="cls-1" width="911" height="308"/><path class="cls-2" d="M253.62,197.06A110,110,0,0,0,238.8,267.8"/><path class="cls-2" d="M343,198.73a103,103,0,0,1,10.5,51.35,99.54,99.54,0,0,1-5.93,28.29"/><circle class="cls-3" cx="301.3" cy="161.49" r="58.7"/><circle cx="276.24" cy="154.73" r="5.67"/><circle cx="340.79" cy="157.73" r="5.67"/><path class="cls-2" d="M304.67,190.3a4.31,4.31,0,0,0,7.47-2.39"/><rect class="cls-4" width="911" height="308"/><polygon class="cls-4" points="0 85.42 0 38.5 113.88 0 252.66 0 0 85.42"/><polygon class="cls-4" points="911 222.58 911 269.5 797.13 308 658.34 308 911 222.58"/><polygon class="cls-4" points="658.34 0 797.13 0 911 38.5 911 85.42 658.34 0"/><polygon class="cls-4" points="252.66 308 113.88 308 0 269.5 0 222.58 252.66 308"/><path class="cls-2" d="M299.76,223.54a272.94,272.94,0,0,0-1.94,83.57"/><path class="cls-5" d="M396.22,127.35h5.48l8.06,13v-13h5.55v21.9h-5.46l-8.08-13.07v13.07h-5.55Z"/><path class="cls-5" d="M421.89,148.7a7.81,7.81,0,0,1-3.25-2.82,8.12,8.12,0,0,1,0-8.3,7.81,7.81,0,0,1,3.25-2.82,12.23,12.23,0,0,1,9.78,0,7.78,7.78,0,0,1,3.24,2.82,8.12,8.12,0,0,1,0,8.3,7.78,7.78,0,0,1-3.24,2.82,12.23,12.23,0,0,1-9.78,0Zm7.53-4.26a4.2,4.2,0,0,0,0-5.42,4,4,0,0,0-5.29,0,4.2,4.2,0,0,0,0,5.42,4,4,0,0,0,5.29,0Z"/><path class="cls-5" d="M438.81,147.31h5.7l-3.29,6.61h-5Z"/><path class="cls-5" d="M459.67,148.17a6,6,0,0,1-1.43-4.25V138h-2.13v-3.82h2.13V129.7h5.52v4.51h3.44V138h-3.44v5.14a2.73,2.73,0,0,0,.45,1.76,2,2,0,0,0,1.61.53,4.35,4.35,0,0,0,2.07-.56V149a7.52,7.52,0,0,1-1.74.55,13.06,13.06,0,0,1-2.27.17A5.41,5.41,0,0,1,459.67,148.17Z"/><path class="cls-5" d="M469.46,134.21h5.33v1.88a5.55,5.55,0,0,1,2.47-1.55,10.77,10.77,0,0,1,3.54-.55v4.23a10.27,10.27,0,0,0-3.65.6A3.78,3.78,0,0,0,475,140.6v8.65h-5.51Z"/><path class="cls-5" d="M482.07,148.36a4.57,4.57,0,0,1-1.74-3.81,4.74,4.74,0,0,1,1.68-3.9,7.45,7.45,0,0,1,4.81-1.36,12,12,0,0,1,2.45.26,9.38,9.38,0,0,1,2.1.71v-.32c0-1.6-1.32-2.41-3.95-2.41a11.84,11.84,0,0,0-5.05,1.07v-3.8A11.31,11.31,0,0,1,485,134a18.75,18.75,0,0,1,3.39-.3c2.8,0,4.91.56,6.35,1.68a5.59,5.59,0,0,1,2.14,4.68v9.15h-5.17V148a5.91,5.91,0,0,1-2.13,1.28,8.42,8.42,0,0,1-2.95.47A7.17,7.17,0,0,1,482.07,148.36Zm8-2.41a3.21,3.21,0,0,0,1.29-1v-1.32a5.36,5.36,0,0,0-3.08-.91,2.7,2.7,0,0,0-1.69.47,1.69,1.69,0,0,0-.59,1.38,1.6,1.6,0,0,0,.58,1.32,2.6,2.6,0,0,0,1.67.47A4.28,4.28,0,0,0,490.08,146Z"/><path class="cls-5" d="M497.51,134.21H503l3.42,8.74,3.38-8.74h5.52l-6.3,15h-5.23Z"/><path class="cls-5" d="M517.71,147.65a7.13,7.13,0,0,1-2.53-5.86,7.82,7.82,0,0,1,2.24-5.89q2.25-2.16,6.48-2.16a9.78,9.78,0,0,1,4.62,1,7,7,0,0,1,2.91,2.79,8,8,0,0,1,1,4v2h-12A2.63,2.63,0,0,0,522,145.4a8.64,8.64,0,0,0,3.42.56,18.54,18.54,0,0,0,3-.25,13.51,13.51,0,0,0,2.68-.69v3.64a13.87,13.87,0,0,1-2.9.76,20.83,20.83,0,0,1-3.55.3A10.62,10.62,0,0,1,517.71,147.65Zm9.51-7.52a2.68,2.68,0,0,0-1-1.91,3.78,3.78,0,0,0-2.41-.69,3.69,3.69,0,0,0-2.38.71,2.65,2.65,0,0,0-1,1.89Z"/><path class="cls-5" d="M534.61,126.09h5.52v23.16h-5.52Z"/><path class="cls-5" d="M544.85,147.65a7.13,7.13,0,0,1-2.53-5.86,7.82,7.82,0,0,1,2.24-5.89c1.5-1.44,3.65-2.16,6.48-2.16a9.78,9.78,0,0,1,4.62,1,7,7,0,0,1,2.91,2.79,8,8,0,0,1,1,4v2h-12a2.61,2.61,0,0,0,1.56,1.82,8.64,8.64,0,0,0,3.42.56,18.54,18.54,0,0,0,3-.25,13.51,13.51,0,0,0,2.68-.69v3.64a13.87,13.87,0,0,1-2.9.76,20.83,20.83,0,0,1-3.55.3A10.62,10.62,0,0,1,544.85,147.65Zm9.51-7.52a2.68,2.68,0,0,0-1-1.91,3.8,3.8,0,0,0-2.41-.69,3.69,3.69,0,0,0-2.38.71,2.65,2.65,0,0,0-1,1.89Z"/><path class="cls-5" d="M561.75,134.21h5.33v1.88a5.59,5.59,0,0,1,2.48-1.55,10.69,10.69,0,0,1,3.54-.55v4.23a10.23,10.23,0,0,0-3.65.6,3.75,3.75,0,0,0-2.18,1.78v8.65h-5.52Z"/><path class="cls-5" d="M574.62,148.69a1.85,1.85,0,0,1-.58-1.38,2,2,0,0,1,.58-1.44,1.85,1.85,0,0,1,1.39-.6,1.91,1.91,0,0,1,1.43.6,2,2,0,0,1,.58,1.44,1.85,1.85,0,0,1-.58,1.38,2,2,0,0,1-1.43.56A1.93,1.93,0,0,1,574.62,148.69Z"/><path class="cls-5" d="M396.22,165h5.55v21.91h-5.55Z"/><path class="cls-5" d="M406.89,185.78a6.05,6.05,0,0,1-1.43-4.25v-5.89h-2.13v-3.82h2.13V167.3H411v4.52h3.45v3.82H411v5.14a2.75,2.75,0,0,0,.45,1.76,2.09,2.09,0,0,0,1.62.53,4.26,4.26,0,0,0,2.07-.57v4.11a7.84,7.84,0,0,1-1.74.55,13.23,13.23,0,0,1-2.27.17A5.47,5.47,0,0,1,406.89,185.78Z"/><path class="cls-5" d="M428.19,169a2.75,2.75,0,0,1-.85-2.07,2.72,2.72,0,0,1,.85-2.05,2.85,2.85,0,0,1,2.1-.84,2.88,2.88,0,0,1,2.08.84,2.87,2.87,0,0,1,0,4.1,3.07,3.07,0,0,1-4.18,0Zm-.66,2.82H433v15h-5.51Z"/><path class="cls-5" d="M438.75,187a10.14,10.14,0,0,1-3.14-1v-4a14.08,14.08,0,0,0,6.4,1.72,5.54,5.54,0,0,0,1.59-.16.62.62,0,0,0,.51-.62.71.71,0,0,0-.33-.61,4.26,4.26,0,0,0-1.19-.5c-.58-.18-1.24-.37-2-.58a16.55,16.55,0,0,1-3-1.16,4.06,4.06,0,0,1-1.63-1.51,4.41,4.41,0,0,1-.54-2.29,4,4,0,0,1,1.93-3.65,10,10,0,0,1,5.28-1.2,18.19,18.19,0,0,1,3.43.34,8.16,8.16,0,0,1,2.72.91v4a8.25,8.25,0,0,0-2.5-1,11.05,11.05,0,0,0-2.89-.41,5.57,5.57,0,0,0-1.67.2.74.74,0,0,0-.59.71c0,.31.2.55.59.72a16.07,16.07,0,0,0,2.14.62l.84.22a12.8,12.8,0,0,1,3.1,1.19,4,4,0,0,1,1.56,1.56,5,5,0,0,1,.45,2.27,4,4,0,0,1-1.86,3.43,9.59,9.59,0,0,1-5.41,1.27A21.08,21.08,0,0,1,438.75,187Z"/><path class="cls-5" d="M465.35,187a10.07,10.07,0,0,1-3.13-1v-4a14.08,14.08,0,0,0,6.39,1.72,5.62,5.62,0,0,0,1.6-.16.61.61,0,0,0,.5-.62.71.71,0,0,0-.33-.61,4,4,0,0,0-1.19-.5c-.57-.18-1.23-.37-2-.58a16.71,16.71,0,0,1-3-1.16,4,4,0,0,1-1.63-1.51,4.41,4.41,0,0,1-.54-2.29,4,4,0,0,1,1.93-3.65,10,10,0,0,1,5.28-1.2,18.19,18.19,0,0,1,3.43.34,8.09,8.09,0,0,1,2.71.91v4a8.08,8.08,0,0,0-2.49-1,11.07,11.07,0,0,0-2.9-.41,5.54,5.54,0,0,0-1.66.2.73.73,0,0,0-.59.71c0,.31.19.55.59.72a16.28,16.28,0,0,0,2.13.62l.85.22a12.8,12.8,0,0,1,3.1,1.19,3.92,3.92,0,0,1,1.55,1.56,4.88,4.88,0,0,1,.46,2.27,3.94,3.94,0,0,1-1.87,3.43,9.53,9.53,0,0,1-5.4,1.27A21.19,21.19,0,0,1,465.35,187Z"/><path class="cls-5" d="M480.44,185.78a6,6,0,0,1-1.42-4.25v-5.89h-2.13v-3.82H479V167.3h5.51v4.52H488v3.82h-3.45v5.14a2.75,2.75,0,0,0,.46,1.76,2,2,0,0,0,1.61.53,4.26,4.26,0,0,0,2.07-.57v4.11a7.52,7.52,0,0,1-1.74.55,13.06,13.06,0,0,1-2.27.17A5.47,5.47,0,0,1,480.44,185.78Z"/><path class="cls-5" d="M491.08,169a2.78,2.78,0,0,1-.84-2.07,2.75,2.75,0,0,1,.84-2.05,3,3,0,0,1,4.19,0,2.87,2.87,0,0,1,0,4.1,3.09,3.09,0,0,1-4.19,0Zm-.65,2.82h5.51v15h-5.51Z"/><path class="cls-5" d="M499,163.7h5.51v23.16H499Z"/><path class="cls-5" d="M507.29,163.7h5.51v23.16h-5.51Z"/><path class="cls-5" d="M531.61,185.36v1.5h-5.33V163.7h5.51V173a6.72,6.72,0,0,1,2.28-1.24,9,9,0,0,1,2.86-.45,8.46,8.46,0,0,1,4.19,1,7,7,0,0,1,2.8,2.84,8.53,8.53,0,0,1,1,4.18,8.42,8.42,0,0,1-1,4.18,7,7,0,0,1-2.82,2.79,8.57,8.57,0,0,1-4.17,1A7.46,7.46,0,0,1,531.61,185.36Zm6.61-3.28a3.56,3.56,0,0,0,1-2.71,3.63,3.63,0,0,0-1-2.73,3.75,3.75,0,0,0-2.73-1,4,4,0,0,0-2.25.64,3.68,3.68,0,0,0-1.45,1.74v2.67a3.61,3.61,0,0,0,1.45,1.73,4.06,4.06,0,0,0,2.25.65A3.78,3.78,0,0,0,538.22,182.08Z"/><path class="cls-5" d="M549,185.26a7.15,7.15,0,0,1-2.52-5.86,7.81,7.81,0,0,1,2.24-5.89q2.24-2.16,6.47-2.16a9.8,9.8,0,0,1,4.63,1,6.92,6.92,0,0,1,2.91,2.78,8.07,8.07,0,0,1,1,4v2h-12a2.63,2.63,0,0,0,1.57,1.81,8.44,8.44,0,0,0,3.42.57,18.54,18.54,0,0,0,3-.25,13.51,13.51,0,0,0,2.68-.69v3.63a13.83,13.83,0,0,1-2.9.77,20.83,20.83,0,0,1-3.55.3A10.67,10.67,0,0,1,549,185.26Zm9.52-7.52a2.66,2.66,0,0,0-1-1.91,3.8,3.8,0,0,0-2.41-.69,3.69,3.69,0,0,0-2.38.7,2.72,2.72,0,0,0-1,1.9Z"/><path class="cls-5" d="M566.77,169a2.75,2.75,0,0,1-.85-2.07,2.72,2.72,0,0,1,.85-2.05,3,3,0,0,1,4.18,0,2.87,2.87,0,0,1,0,4.1,3.07,3.07,0,0,1-4.18,0Zm-.66,2.82h5.52v15h-5.52Z"/><path class="cls-5" d="M574.63,171.82H580v1.66a6.08,6.08,0,0,1,2.35-1.6,7.84,7.84,0,0,1,2.89-.53,6.05,6.05,0,0,1,4.68,1.64,6.36,6.36,0,0,1,1.52,4.47v9.4h-5.52v-8.68c0-1.69-.77-2.54-2.31-2.54a3.92,3.92,0,0,0-2,.49,4,4,0,0,0-1.47,1.48v9.25h-5.52Z"/><path class="cls-5" d="M599.22,193.79a12.22,12.22,0,0,1-2.62-.76v-3.82a14.15,14.15,0,0,0,5.64,1.07,4.78,4.78,0,0,0,3.31-.95,3.54,3.54,0,0,0,1-2.75v-.91a6.51,6.51,0,0,1-2.24,1.22,9.08,9.08,0,0,1-2.84.44,8.53,8.53,0,0,1-4.2-1,7.11,7.11,0,0,1-2.83-2.82,8.42,8.42,0,0,1-1-4.17,8.53,8.53,0,0,1,1-4.2,7,7,0,0,1,2.82-2.81,8.68,8.68,0,0,1,4.17-1,7.46,7.46,0,0,1,5.33,2v-1.5h5.32v14a7.77,7.77,0,0,1-2.39,6.08q-2.4,2.16-7.45,2.16A17.23,17.23,0,0,1,599.22,193.79Zm5.94-11.38a3.49,3.49,0,0,0,1.41-1.76V178a3.6,3.6,0,0,0-1.44-1.74,4.08,4.08,0,0,0-2.26-.64,3.78,3.78,0,0,0-2.73,1,3.56,3.56,0,0,0-1,2.68,3.53,3.53,0,0,0,3.76,3.76A4.07,4.07,0,0,0,605.16,182.41Z"/><path class="cls-5" d="M628.76,186.34a6.89,6.89,0,0,1-2.82-2.79,8.43,8.43,0,0,1-1-4.18,8.53,8.53,0,0,1,1-4.18,7,7,0,0,1,2.8-2.84,8.45,8.45,0,0,1,4.18-1,8.89,8.89,0,0,1,2.89.44,6.46,6.46,0,0,1,2.25,1.25V163.7h5.52v23.16h-5.33v-1.5a7.48,7.48,0,0,1-5.33,2A8.56,8.56,0,0,1,628.76,186.34Zm7.86-3.92a3.54,3.54,0,0,0,1.44-1.73V178a3.6,3.6,0,0,0-1.44-1.74,4.07,4.07,0,0,0-2.25-.64,3.75,3.75,0,0,0-2.73,1,3.63,3.63,0,0,0-1,2.73,3.56,3.56,0,0,0,1,2.71,3.78,3.78,0,0,0,2.73,1A4.08,4.08,0,0,0,636.62,182.42Z"/><path class="cls-5" d="M648.3,185.26a7.13,7.13,0,0,1-2.53-5.86,7.81,7.81,0,0,1,2.24-5.89q2.25-2.16,6.48-2.16a9.78,9.78,0,0,1,4.62,1,6.86,6.86,0,0,1,2.91,2.78,8.07,8.07,0,0,1,1,4v2H651a2.62,2.62,0,0,0,1.56,1.81,8.44,8.44,0,0,0,3.42.57,18.54,18.54,0,0,0,3-.25,13.51,13.51,0,0,0,2.68-.69v3.63a13.66,13.66,0,0,1-2.9.77,20.74,20.74,0,0,1-3.55.3A10.62,10.62,0,0,1,648.3,185.26Zm9.51-7.52a2.69,2.69,0,0,0-1-1.91,3.83,3.83,0,0,0-2.42-.69,3.69,3.69,0,0,0-2.38.7,2.67,2.67,0,0,0-1,1.9Z"/><path class="cls-5" d="M662.85,171.82h5.52l3.42,8.74,3.38-8.74h5.52l-6.3,15h-5.24Z"/><path class="cls-5" d="M683.05,185.26a7.15,7.15,0,0,1-2.52-5.86,7.81,7.81,0,0,1,2.24-5.89q2.24-2.16,6.47-2.16a9.73,9.73,0,0,1,4.62,1,6.89,6.89,0,0,1,2.92,2.78,8.07,8.07,0,0,1,1,4v2h-12a2.61,2.61,0,0,0,1.57,1.81,8.41,8.41,0,0,0,3.42.57,18.54,18.54,0,0,0,3-.25,13.7,13.7,0,0,0,2.68-.69v3.63a13.83,13.83,0,0,1-2.9.77,20.86,20.86,0,0,1-3.56.3A10.64,10.64,0,0,1,683.05,185.26Zm9.51-7.52a2.62,2.62,0,0,0-1-1.91,3.8,3.8,0,0,0-2.41-.69,3.69,3.69,0,0,0-2.38.7,2.72,2.72,0,0,0-1,1.9Z"/><path class="cls-5" d="M700,163.7h5.52v23.16H700Z"/><path class="cls-5" d="M712.06,186.31a7.81,7.81,0,0,1-3.25-2.82,7.67,7.67,0,0,1,3.25-11.12,12.21,12.21,0,0,1,9.77,0,7.85,7.85,0,0,1,3.25,11.12,7.75,7.75,0,0,1-3.25,2.82,12.21,12.21,0,0,1-9.77,0Zm7.53-4.26a4.2,4.2,0,0,0,0-5.42,4,4,0,0,0-5.29,0,4.2,4.2,0,0,0,0,5.42,4,4,0,0,0,5.29,0Z"/><path class="cls-5" d="M728.42,171.82h5.32v1.5a7.46,7.46,0,0,1,5.33-2,8.68,8.68,0,0,1,4.17,1,7,7,0,0,1,2.82,2.79,8.46,8.46,0,0,1,1,4.19,8.56,8.56,0,0,1-1,4.18,7.09,7.09,0,0,1-2.8,2.84,8.49,8.49,0,0,1-4.19,1,9.12,9.12,0,0,1-2.87-.45,6.84,6.84,0,0,1-2.27-1.24v8.08h-5.51ZM740.36,182a3.59,3.59,0,0,0,1-2.72,3.55,3.55,0,0,0-1-2.71,3.78,3.78,0,0,0-2.73-1,4.08,4.08,0,0,0-2.26.64,3.66,3.66,0,0,0-1.44,1.74v2.66a3.61,3.61,0,0,0,1.44,1.74,4.09,4.09,0,0,0,2.26.65A3.76,3.76,0,0,0,740.36,182Z"/><path class="cls-5" d="M751.15,185.26a7.15,7.15,0,0,1-2.52-5.86,7.81,7.81,0,0,1,2.24-5.89q2.24-2.16,6.47-2.16a9.73,9.73,0,0,1,4.62,1,6.89,6.89,0,0,1,2.92,2.78,8.07,8.07,0,0,1,1,4v2h-12a2.61,2.61,0,0,0,1.57,1.81,8.44,8.44,0,0,0,3.42.57,18.54,18.54,0,0,0,3-.25,13.51,13.51,0,0,0,2.68-.69v3.63a13.83,13.83,0,0,1-2.9.77,20.86,20.86,0,0,1-3.56.3A10.64,10.64,0,0,1,751.15,185.26Zm9.52-7.52a2.66,2.66,0,0,0-1-1.91,3.8,3.8,0,0,0-2.41-.69,3.69,3.69,0,0,0-2.38.7,2.72,2.72,0,0,0-1,1.9Z"/><path class="cls-5" d="M771.26,186.34a7,7,0,0,1-2.82-2.79,8.43,8.43,0,0,1-1-4.18,8.53,8.53,0,0,1,1-4.18,7,7,0,0,1,2.8-2.84,8.46,8.46,0,0,1,4.19-1,8.87,8.87,0,0,1,2.88.44,6.6,6.6,0,0,1,2.26,1.25V163.7h5.51v23.16h-5.33v-1.5a7.48,7.48,0,0,1-5.32,2A8.57,8.57,0,0,1,771.26,186.34Zm7.86-3.92a3.61,3.61,0,0,0,1.45-1.73V178a3.68,3.68,0,0,0-1.45-1.74,4,4,0,0,0-2.25-.64,3.75,3.75,0,0,0-2.73,1,3.63,3.63,0,0,0-1,2.73,3.56,3.56,0,0,0,1,2.71,3.78,3.78,0,0,0,2.73,1A4.06,4.06,0,0,0,779.12,182.42Z"/><path class="cls-5" d="M788.85,186.29a1.85,1.85,0,0,1-.58-1.37,2,2,0,0,1,.58-1.45,2,2,0,0,1,2.82,0,2,2,0,0,1,.58,1.45,1.81,1.81,0,0,1-.58,1.37,2,2,0,0,1-2.82,0Z"/></svg>