<?xml version="1.0" encoding="utf-8"?>
<!-- Generator: Adobe Illustrator 24.2.3, SVG Export Plug-In . SVG Version: 6.00 Build 0)  -->
<svg version="1.1" id="Layer_1" xmlns="http://www.w3.org/2000/svg" xmlns:xlink="http://www.w3.org/1999/xlink" x="0px" y="0px"
	 viewBox="0 0 910.7 307.2" style="enable-background:new 0 0 910.7 307.2;" xml:space="preserve">
<style type="text/css">
	.st0{fill:#BB0024;}
	.st1{fill:none;stroke:#000000;stroke-miterlimit:10;}
	.st2{fill:#FFFFFF;stroke:#000000;stroke-miterlimit:10;}
	.st3{opacity:0.19;fill:#FFFFFF;enable-background:new    ;}
	.st4{fill:#FFFFFF;}
</style>
<rect y="0" class="st0" width="911" height="308"/>
<path class="st1" d="M253.6,197.1c-12.8,21.2-18,46.2-14.8,70.7"/>
<path class="st1" d="M343,198.7c7.9,15.9,11.5,33.6,10.5,51.3c-0.6,9.7-2.6,19.2-5.9,28.3"/>
<circle class="st2" cx="301.3" cy="161.5" r="58.7"/>
<circle cx="276.2" cy="154.7" r="5.7"/>
<circle cx="340.8" cy="157.7" r="5.7"/>
<path class="st1" d="M304.7,190.3c1.6,1.8,4.3,1.9,6.1,0.3c0.8-0.7,1.3-1.7,1.4-2.7"/>
<rect y="0" class="st3" width="911" height="308"/>
<path class="st1" d="M299.8,223.5c-4.9,27.6-5.6,55.8-1.9,83.6"/>
<path class="st4" d="M396.2,127.3h5.5l8.1,13v-13h5.5v21.9h-5.5l-8.1-13.1v13.1h-5.5L396.2,127.3z"/>
<path class="st4" d="M421.9,148.7c-1.3-0.6-2.5-1.6-3.3-2.8c-1.5-2.6-1.5-5.7,0-8.3c0.8-1.2,1.9-2.2,3.3-2.8c3.1-1.4,6.7-1.4,9.8,0
	c1.3,0.6,2.4,1.6,3.2,2.8c1.5,2.6,1.5,5.7,0,8.3c-0.8,1.2-1.9,2.2-3.2,2.8C428.6,150.1,425,150.1,421.9,148.7z M429.4,144.4
	c1.3-1.6,1.3-3.9,0-5.4c-1.5-1.3-3.8-1.3-5.3,0c-1.3,1.6-1.3,3.9,0,5.4C425.6,145.8,427.9,145.8,429.4,144.4z"/>
<path class="st4" d="M438.8,147.3h5.7l-3.3,6.6h-5L438.8,147.3z"/>
<path class="st4" d="M459.7,148.2c-1-1.2-1.5-2.7-1.4-4.3V138h-2.1v-3.8h2.1v-4.5h5.5v4.5h3.4v3.8h-3.4v5.1
	c-0.1,0.6,0.1,1.2,0.5,1.8c0.4,0.4,1,0.6,1.6,0.5c0.7,0,1.4-0.2,2.1-0.6v4.1c-0.6,0.3-1.1,0.4-1.7,0.6c-0.8,0.1-1.5,0.2-2.3,0.2
	C462.3,149.8,460.8,149.3,459.7,148.2z"/>
<path class="st4" d="M469.5,134.2h5.3v1.9c0.7-0.7,1.5-1.3,2.5-1.6c1.1-0.4,2.3-0.6,3.5-0.6v4.2c-1.2,0-2.5,0.2-3.6,0.6
	c-0.9,0.3-1.7,0.9-2.1,1.8v8.6h-5.5L469.5,134.2z"/>
<path class="st4" d="M482.1,148.4c-1.2-0.9-1.8-2.3-1.7-3.8c-0.1-1.5,0.5-2.9,1.7-3.9c1.4-1,3.1-1.5,4.8-1.4c0.8,0,1.6,0.1,2.5,0.3
	c0.7,0.2,1.4,0.4,2.1,0.7v-0.3c0-1.6-1.3-2.4-4-2.4c-1.7,0-3.5,0.3-5,1.1v-3.8c0.8-0.4,1.7-0.6,2.6-0.8c1.1-0.2,2.3-0.3,3.4-0.3
	c2.8,0,4.9,0.6,6.4,1.7c1.4,1.1,2.2,2.9,2.1,4.7v9.1h-5.2V148c-0.6,0.6-1.3,1-2.1,1.3c-0.9,0.3-1.9,0.5-3,0.5
	C485,149.8,483.4,149.3,482.1,148.4z M490.1,145.9c0.5-0.2,1-0.6,1.3-1v-1.3c-0.9-0.6-2-0.9-3.1-0.9c-0.6,0-1.2,0.1-1.7,0.5
	c-0.4,0.3-0.6,0.9-0.6,1.4c0,0.5,0.2,1,0.6,1.3c0.5,0.3,1.1,0.5,1.7,0.5C488.9,146.4,489.5,146.3,490.1,145.9L490.1,145.9z"/>
<path class="st4" d="M497.5,134.2h5.5l3.4,8.7l3.4-8.7h5.5l-6.3,15h-5.2L497.5,134.2z"/>
<path class="st4" d="M517.7,147.6c-1.7-1.4-2.7-3.6-2.5-5.9c-0.1-2.2,0.7-4.3,2.2-5.9c1.5-1.4,3.7-2.2,6.5-2.2c1.6,0,3.2,0.3,4.6,1
	c1.2,0.6,2.2,1.6,2.9,2.8c0.7,1.2,1,2.6,1,4v2h-12c0.2,0.8,0.8,1.5,1.6,1.9c1.1,0.4,2.3,0.6,3.4,0.6c1,0,2-0.1,3-0.3
	c0.9-0.1,1.8-0.4,2.7-0.7v3.6c-0.9,0.4-1.9,0.6-2.9,0.8c-1.2,0.2-2.4,0.3-3.5,0.3C522.2,149.9,519.7,149.1,517.7,147.6z
	 M527.2,140.1c-0.1-0.7-0.4-1.4-1-1.9c-0.7-0.5-1.6-0.7-2.4-0.7c-0.9,0-1.7,0.2-2.4,0.7c-0.6,0.5-0.9,1.1-1,1.9H527.2z"/>
<path class="st4" d="M534.6,126.1h5.5v23.2h-5.5V126.1z"/>
<path class="st4" d="M544.8,147.6c-1.7-1.4-2.7-3.6-2.5-5.9c-0.1-2.2,0.7-4.3,2.2-5.9c1.5-1.4,3.7-2.2,6.5-2.2c1.6,0,3.2,0.3,4.6,1
	c1.2,0.6,2.2,1.6,2.9,2.8c0.7,1.2,1,2.6,1,4v2h-12c0.2,0.8,0.8,1.5,1.6,1.8c1.1,0.4,2.3,0.6,3.4,0.6c1,0,2-0.1,3-0.3
	c0.9-0.1,1.8-0.4,2.7-0.7v3.6c-0.9,0.4-1.9,0.6-2.9,0.8c-1.2,0.2-2.4,0.3-3.5,0.3C549.3,149.8,546.9,149.1,544.8,147.6z
	 M554.4,140.1c-0.1-0.7-0.4-1.4-1-1.9c-0.7-0.5-1.6-0.7-2.4-0.7c-0.9,0-1.7,0.2-2.4,0.7c-0.6,0.5-0.9,1.1-1,1.9H554.4z"/>
<path class="st4" d="M561.8,134.2h5.3v1.9c0.7-0.7,1.5-1.3,2.5-1.6c1.1-0.4,2.3-0.6,3.5-0.6v4.2c-1.2,0-2.5,0.2-3.7,0.6
	c-0.9,0.3-1.7,0.9-2.2,1.8v8.6h-5.5L561.8,134.2z"/>
<path class="st4" d="M574.6,148.7c-0.4-0.4-0.6-0.9-0.6-1.4c0-0.5,0.2-1.1,0.6-1.4c0.4-0.4,0.9-0.6,1.4-0.6c0.5,0,1.1,0.2,1.4,0.6
	c0.4,0.4,0.6,0.9,0.6,1.4c0,0.5-0.2,1-0.6,1.4c-0.4,0.4-0.9,0.6-1.4,0.6C575.5,149.3,575,149.1,574.6,148.7z"/>
<path class="st4" d="M396.2,165h5.5v21.9h-5.5V165z"/>
<path class="st4" d="M406.9,185.8c-1-1.2-1.5-2.7-1.4-4.3v-5.9h-2.1v-3.8h2.1v-4.5h5.5v4.5h3.5v3.8H411v5.1
	c-0.1,0.6,0.1,1.2,0.5,1.8c0.4,0.4,1,0.6,1.6,0.5c0.7,0,1.4-0.2,2.1-0.6v4.1c-0.6,0.3-1.1,0.4-1.7,0.6c-0.8,0.1-1.5,0.2-2.3,0.2
	C409.6,187.4,408,186.9,406.9,185.8z"/>
<path class="st4" d="M428.2,169c-0.6-0.5-0.9-1.3-0.9-2.1c0-0.8,0.3-1.5,0.9-2.1c0.6-0.6,1.3-0.9,2.1-0.8c0.8,0,1.5,0.3,2.1,0.8
	c1.1,1.1,1.2,2.9,0,4.1c0,0,0,0,0,0C431.2,170.1,429.4,170.1,428.2,169L428.2,169z M427.5,171.8h5.5v15h-5.5L427.5,171.8z"/>
<path class="st4" d="M438.8,187c-1.1-0.2-2.2-0.5-3.1-1v-4c2,1.1,4.2,1.7,6.4,1.7c0.5,0,1.1,0,1.6-0.2c0.3-0.1,0.5-0.3,0.5-0.6
	c0-0.2-0.1-0.5-0.3-0.6c-0.4-0.2-0.8-0.4-1.2-0.5c-0.6-0.2-1.2-0.4-2-0.6c-1-0.3-2-0.7-3-1.2c-0.7-0.3-1.2-0.9-1.6-1.5
	c-0.4-0.7-0.6-1.5-0.5-2.3c-0.1-1.5,0.7-2.9,1.9-3.6c1.6-0.9,3.4-1.3,5.3-1.2c1.2,0,2.3,0.1,3.4,0.3c1,0.1,1.9,0.4,2.7,0.9v4
	c-0.8-0.5-1.6-0.8-2.5-1c-0.9-0.3-1.9-0.4-2.9-0.4c-0.6,0-1.1,0-1.7,0.2c-0.3,0.1-0.6,0.4-0.6,0.7c0,0.3,0.2,0.6,0.6,0.7
	c0.7,0.3,1.4,0.5,2.1,0.6l0.8,0.2c1.1,0.3,2.1,0.7,3.1,1.2c0.7,0.4,1.2,0.9,1.6,1.6c0.3,0.7,0.5,1.5,0.5,2.3c0,1.4-0.7,2.7-1.9,3.4
	c-1.6,0.9-3.5,1.4-5.4,1.3C441.3,187.4,440,187.3,438.8,187z"/>
<path class="st4" d="M465.4,187c-1.1-0.2-2.1-0.5-3.1-1v-4c2,1.1,4.2,1.7,6.4,1.7c0.5,0,1.1,0,1.6-0.2c0.3-0.1,0.5-0.3,0.5-0.6
	c0-0.2-0.1-0.5-0.3-0.6c-0.4-0.2-0.8-0.4-1.2-0.5c-0.6-0.2-1.2-0.4-2-0.6c-1-0.3-2-0.7-3-1.2c-0.7-0.3-1.2-0.9-1.6-1.5
	c-0.4-0.7-0.6-1.5-0.5-2.3c-0.1-1.5,0.7-2.9,1.9-3.6c1.6-0.9,3.4-1.3,5.3-1.2c1.2,0,2.3,0.1,3.4,0.3c1,0.1,1.9,0.4,2.7,0.9v4
	c-0.8-0.5-1.6-0.8-2.5-1c-0.9-0.3-1.9-0.4-2.9-0.4c-0.6,0-1.1,0-1.7,0.2c-0.3,0.1-0.6,0.4-0.6,0.7c0,0.3,0.2,0.6,0.6,0.7
	c0.7,0.3,1.4,0.5,2.1,0.6l0.9,0.2c1.1,0.3,2.1,0.7,3.1,1.2c0.7,0.4,1.2,0.9,1.5,1.6c0.3,0.7,0.5,1.5,0.5,2.3c0,1.4-0.7,2.7-1.9,3.4
	c-1.6,0.9-3.5,1.4-5.4,1.3C467.9,187.4,466.6,187.3,465.4,187z"/>
<path class="st4" d="M480.4,185.8c-1-1.2-1.5-2.7-1.4-4.3v-5.9h-2.1v-3.8h2.1v-4.5h5.5v4.5h3.5v3.8h-3.5v5.1
	c-0.1,0.6,0.1,1.2,0.5,1.8c0.4,0.4,1,0.6,1.6,0.5c0.7,0,1.4-0.2,2.1-0.6v4.1c-0.6,0.3-1.1,0.4-1.7,0.6c-0.8,0.1-1.5,0.2-2.3,0.2
	C483.1,187.4,481.6,186.9,480.4,185.8z"/>
<path class="st4" d="M491.1,169c-0.6-0.5-0.9-1.3-0.8-2.1c0-0.8,0.3-1.5,0.8-2.1c1.2-1.1,3-1.1,4.2,0c1.1,1.1,1.2,2.9,0,4.1
	c0,0,0,0,0,0C494.1,170.1,492.3,170.1,491.1,169L491.1,169z M490.4,171.8h5.5v15h-5.5V171.8z"/>
<path class="st4" d="M499,163.7h5.5v23.2H499V163.7z"/>
<path class="st4" d="M507.3,163.7h5.5v23.2h-5.5L507.3,163.7z"/>
<path class="st4" d="M531.6,185.4v1.5h-5.3v-23.2h5.5v9.3c0.7-0.6,1.4-1,2.3-1.2c0.9-0.3,1.9-0.5,2.9-0.4c1.5,0,2.9,0.3,4.2,1
	c1.2,0.7,2.2,1.6,2.8,2.8c0.7,1.3,1,2.7,1,4.2c0,1.5-0.3,2.9-1,4.2c-0.7,1.2-1.6,2.2-2.8,2.8c-1.3,0.7-2.7,1-4.2,1
	C535,187.4,533.1,186.7,531.6,185.4z M538.2,182.1c0.7-0.7,1.1-1.7,1-2.7c0.1-1-0.3-2-1-2.7c-0.7-0.7-1.7-1-2.7-1
	c-0.8,0-1.6,0.2-2.3,0.6c-0.7,0.4-1.2,1-1.5,1.7v2.7c0.3,0.7,0.8,1.3,1.5,1.7c0.7,0.4,1.5,0.7,2.3,0.6
	C536.5,183.1,537.5,182.8,538.2,182.1z"/>
<path class="st4" d="M549,185.3c-1.7-1.4-2.6-3.6-2.5-5.9c-0.1-2.2,0.7-4.3,2.2-5.9c1.5-1.4,3.6-2.2,6.5-2.2c1.6-0.1,3.2,0.3,4.6,1
	c1.2,0.6,2.2,1.6,2.9,2.8c0.7,1.2,1,2.6,1,4v2h-12c0.2,0.8,0.8,1.5,1.6,1.8c1.1,0.4,2.3,0.6,3.4,0.6c1,0,2-0.1,3-0.3
	c0.9-0.1,1.8-0.4,2.7-0.7v3.6c-0.9,0.4-1.9,0.6-2.9,0.8c-1.2,0.2-2.4,0.3-3.5,0.3C553.5,187.4,551,186.7,549,185.3z M558.5,177.7
	c0-0.7-0.4-1.4-1-1.9c-0.7-0.5-1.6-0.7-2.4-0.7c-0.9,0-1.7,0.2-2.4,0.7c-0.6,0.5-0.9,1.2-1,1.9L558.5,177.7z"/>
<path class="st4" d="M566.8,169c-0.6-0.5-0.9-1.3-0.8-2.1c0-0.8,0.3-1.5,0.8-2.1c1.2-1.1,3-1.1,4.2,0c1.1,1.1,1.2,2.9,0,4.1
	c0,0,0,0,0,0C569.8,170.1,567.9,170.1,566.8,169L566.8,169z M566.1,171.8h5.5v15h-5.5V171.8z"/>
<path class="st4" d="M574.6,171.8h5.4v1.7c0.6-0.7,1.5-1.3,2.3-1.6c0.9-0.4,1.9-0.5,2.9-0.5c1.7-0.1,3.4,0.4,4.7,1.6
	c1.1,1.2,1.6,2.8,1.5,4.5v9.4h-5.5v-8.7c0-1.7-0.8-2.5-2.3-2.5c-0.7,0-1.4,0.2-2,0.5c-0.6,0.4-1.1,0.9-1.5,1.5v9.3h-5.5L574.6,171.8
	z"/>
<path class="st4" d="M599.2,193.8c-0.9-0.2-1.8-0.4-2.6-0.8v-3.8c1.8,0.7,3.7,1.1,5.6,1.1c1.2,0.1,2.4-0.2,3.3-0.9
	c0.7-0.7,1.1-1.7,1-2.8v-0.9c-0.7,0.6-1.4,1-2.2,1.2c-0.9,0.3-1.9,0.4-2.8,0.4c-1.5,0-2.9-0.3-4.2-1c-1.2-0.7-2.2-1.6-2.8-2.8
	c-0.7-1.3-1-2.7-1-4.2c0-1.5,0.3-2.9,1-4.2c0.6-1.2,1.6-2.2,2.8-2.8c1.3-0.7,2.7-1,4.2-1c2-0.1,3.9,0.7,5.3,2v-1.5h5.3v14
	c0.1,2.3-0.7,4.5-2.4,6.1c-1.6,1.4-4.1,2.2-7.5,2.2C601.2,194.1,600.2,194,599.2,193.8z M605.2,182.4c0.7-0.4,1.1-1,1.4-1.8V178
	c-0.3-0.7-0.8-1.3-1.4-1.7c-0.7-0.4-1.5-0.7-2.3-0.6c-1,0-2,0.3-2.7,1c-0.7,0.7-1.1,1.7-1,2.7c-0.1,1.9,1.3,3.6,3.3,3.8
	c0.2,0,0.3,0,0.5,0C603.7,183.1,604.5,182.8,605.2,182.4L605.2,182.4z"/>
<path class="st4" d="M628.8,186.3c-1.2-0.6-2.2-1.6-2.8-2.8c-0.7-1.3-1-2.7-1-4.2c0-1.5,0.3-2.9,1-4.2c0.6-1.2,1.6-2.2,2.8-2.8
	c1.3-0.7,2.7-1,4.2-1c1,0,2,0.1,2.9,0.4c0.8,0.3,1.6,0.7,2.3,1.3v-9.3h5.5v23.2h-5.3v-1.5c-1.4,1.3-3.4,2.1-5.3,2
	C631.5,187.4,630,187,628.8,186.3z M636.6,182.4c0.7-0.4,1.2-1,1.4-1.7V178c-0.3-0.7-0.8-1.3-1.4-1.7c-0.7-0.4-1.5-0.7-2.3-0.6
	c-1,0-2,0.3-2.7,1c-0.7,0.7-1.1,1.7-1,2.7c-0.1,1,0.3,2,1,2.7c0.7,0.7,1.7,1,2.7,1C635.2,183.1,635.9,182.8,636.6,182.4z"/>
<path class="st4" d="M648.3,185.3c-1.7-1.4-2.7-3.6-2.5-5.9c-0.1-2.2,0.7-4.3,2.2-5.9c1.5-1.4,3.7-2.2,6.5-2.2c1.6,0,3.2,0.3,4.6,1
	c1.2,0.6,2.2,1.6,2.9,2.8c0.7,1.2,1,2.6,1,4v2h-12c0.2,0.8,0.8,1.5,1.6,1.8c1.1,0.4,2.3,0.6,3.4,0.6c1,0,2-0.1,3-0.3
	c0.9-0.1,1.8-0.4,2.7-0.7v3.6c-0.9,0.4-1.9,0.6-2.9,0.8c-1.2,0.2-2.4,0.3-3.5,0.3C652.7,187.4,650.3,186.7,648.3,185.3z
	 M657.8,177.7c-0.1-0.7-0.4-1.4-1-1.9c-0.7-0.5-1.6-0.7-2.4-0.7c-0.9,0-1.7,0.2-2.4,0.7c-0.6,0.5-0.9,1.2-1,1.9L657.8,177.7z"/>
<path class="st4" d="M662.8,171.8h5.5l3.4,8.7l3.4-8.7h5.5l-6.3,15h-5.2L662.8,171.8z"/>
<path class="st4" d="M683,185.3c-1.7-1.4-2.6-3.6-2.5-5.9c-0.1-2.2,0.7-4.3,2.2-5.9c1.5-1.4,3.6-2.2,6.5-2.2c1.6-0.1,3.2,0.3,4.6,1
	c1.2,0.6,2.2,1.6,2.9,2.8c0.7,1.2,1,2.6,1,4v2h-12c0.2,0.8,0.8,1.5,1.6,1.8c1.1,0.4,2.3,0.6,3.4,0.6c1,0,2-0.1,3-0.3
	c0.9-0.1,1.8-0.4,2.7-0.7v3.6c-0.9,0.4-1.9,0.6-2.9,0.8c-1.2,0.2-2.4,0.3-3.6,0.3C687.5,187.4,685.1,186.7,683,185.3z M692.6,177.7
	c0-0.8-0.4-1.4-1-1.9c-0.7-0.5-1.6-0.7-2.4-0.7c-0.9,0-1.7,0.2-2.4,0.7c-0.6,0.5-0.9,1.2-1,1.9L692.6,177.7z"/>
<path class="st4" d="M700,163.7h5.5v23.2H700V163.7z"/>
<path class="st4" d="M712.1,186.3c-1.3-0.6-2.5-1.6-3.3-2.8c-2.3-3.6-1.3-8.3,2.3-10.6c0.3-0.2,0.6-0.4,0.9-0.5
	c3.1-1.4,6.7-1.4,9.8,0c3.9,1.9,5.5,6.6,3.6,10.5c-0.1,0.2-0.2,0.4-0.3,0.6c-0.8,1.2-1.9,2.2-3.3,2.8
	C718.7,187.7,715.2,187.7,712.1,186.3z M719.6,182c1.3-1.6,1.3-3.9,0-5.4c-1.5-1.3-3.8-1.3-5.3,0c-1.3,1.6-1.3,3.9,0,5.4
	C715.8,183.4,718.1,183.4,719.6,182z"/>
<path class="st4" d="M728.4,171.8h5.3v1.5c1.4-1.3,3.4-2.1,5.3-2c1.5,0,2.9,0.3,4.2,1c1.2,0.6,2.2,1.6,2.8,2.8c0.7,1.3,1,2.7,1,4.2
	c0,1.5-0.3,2.9-1,4.2c-0.6,1.2-1.6,2.2-2.8,2.8c-1.3,0.7-2.7,1-4.2,1c-1,0-1.9-0.1-2.9-0.4c-0.8-0.3-1.6-0.7-2.3-1.2v8.1h-5.5V171.8
	z M740.4,182c0.7-0.7,1.1-1.7,1-2.7c0.1-1-0.3-2-1-2.7c-0.7-0.7-1.7-1-2.7-1c-0.8,0-1.6,0.2-2.3,0.6c-0.7,0.4-1.2,1-1.4,1.7v2.7
	c0.3,0.7,0.8,1.3,1.4,1.7c0.7,0.4,1.5,0.7,2.3,0.6C738.6,183,739.6,182.7,740.4,182z"/>
<path class="st4" d="M751.2,185.3c-1.7-1.4-2.6-3.6-2.5-5.9c-0.1-2.2,0.7-4.3,2.2-5.9c1.5-1.4,3.7-2.2,6.5-2.2
	c1.6-0.1,3.2,0.3,4.6,1c1.2,0.6,2.2,1.6,2.9,2.8c0.7,1.2,1,2.6,1,4v2h-12c0.2,0.8,0.8,1.5,1.6,1.8c1.1,0.4,2.3,0.6,3.4,0.6
	c1,0,2-0.1,3-0.3c0.9-0.1,1.8-0.4,2.7-0.7v3.6c-0.9,0.4-1.9,0.6-2.9,0.8c-1.2,0.2-2.4,0.3-3.6,0.3
	C755.6,187.4,753.2,186.7,751.2,185.3z M760.7,177.7c0-0.7-0.4-1.4-1-1.9c-0.7-0.5-1.6-0.7-2.4-0.7c-0.9,0-1.7,0.2-2.4,0.7
	c-0.6,0.5-0.9,1.2-1,1.9L760.7,177.7z"/>
<path class="st4" d="M771.3,186.3c-1.2-0.6-2.2-1.6-2.8-2.8c-0.7-1.3-1-2.7-1-4.2c0-1.5,0.3-2.9,1-4.2c0.6-1.2,1.6-2.2,2.8-2.8
	c1.3-0.7,2.7-1,4.2-1c1,0,2,0.1,2.9,0.4c0.8,0.3,1.6,0.7,2.3,1.3v-9.3h5.5v23.2h-5.3v-1.5c-1.4,1.3-3.4,2.1-5.3,2
	C774,187.4,772.5,187,771.3,186.3z M779.1,182.4c0.7-0.4,1.2-1,1.5-1.7V178c-0.3-0.7-0.8-1.3-1.5-1.7c-0.7-0.4-1.5-0.7-2.3-0.6
	c-1,0-2,0.3-2.7,1c-0.7,0.7-1.1,1.7-1,2.7c-0.1,1,0.3,2,1,2.7c0.7,0.7,1.7,1,2.7,1C777.7,183.1,778.4,182.8,779.1,182.4z"/>
<path class="st4" d="M788.8,186.3c-0.4-0.4-0.6-0.9-0.6-1.4c0-0.5,0.2-1.1,0.6-1.4c0.8-0.8,2-0.8,2.8,0c0.4,0.4,0.6,0.9,0.6,1.4
	c0,0.5-0.2,1-0.6,1.4C790.9,187.1,789.6,187.1,788.8,186.3z"/>
</svg>
