<svg xmlns="http://www.w3.org/2000/svg" viewBox="0 0 485 413.73"><defs><style>.cls-1{fill:#fff;}.cls-2{fill:#ffcbd0;}.cls-3{fill:#4f1f37;}.cls-4{fill:#ffeae8;}.cls-5{fill:#ff9280;}.cls-6{fill:#fbf0e8;}.cls-7{fill:#ffcc7a;}.cls-8{fill:#90d3d0;}.cls-9{fill:#6c92e5;}.cls-10,.cls-11{fill:none;stroke:#4f1f37;stroke-width:0.49px;}.cls-10{stroke-miterlimit:10;}.cls-11{stroke-linecap:round;stroke-linejoin:round;}</style></defs><g id="Layer_2" data-name="Layer 2"><g id="Layer_1-2" data-name="Layer 1"><path class="cls-1" d="M23,413.73a13.61,13.61,0,0,1-13.39-10.9c-7-35-14-80.84-6.23-125.17C11.55,231,34.25,192.05,67.3,168.05c2.59-1.89,5.23-3.67,7.86-5.38-3.8-8.62-5.83-18.66-6-30a106,106,0,0,1,9.92-46.33A126.9,126.9,0,0,1,55.73,41.12c-1.08-3.93-3.95-14.28,1.48-23.72C61.1,10.77,68.31,6.21,76.55,5.11a33.06,33.06,0,0,1,4.34-.28A43.62,43.62,0,0,1,90.57,6c.8.16,1.61.34,2.4.55,21,5.2,39.21,15.53,57.58,26.57,6.26,3.76,12.79,7.76,19.26,12.06,24.31-22.6,54.53-37.75,86.25-43A157.82,157.82,0,0,1,281.94,0c36.23,0,71.42,12,99.25,33.8,6,3.2,10.33,7,13.18,11.66.9.89,1.79,1.8,2.66,2.71A160.14,160.14,0,0,1,414.9,70.83Q418,72,421,73.28c6.18,2.69,14.5,7.15,18.86,15.62a81.85,81.85,0,0,1,26.67,19.58c12.55,13.74,19.27,31.55,18.42,48.85-.13,2.73-.54,11-6.2,17.74a24.81,24.81,0,0,1-17.68,8.59,43.26,43.26,0,0,1-2.87,16.05,19.63,19.63,0,0,1-4.7,7c6.38,71.74,5.87,135.63-1.54,195.19a13.6,13.6,0,0,1-13.55,11.87Z"/><path class="cls-2" d="M438.39,400.21H23c-7.78-39-13-81-6.16-120.23S43,202.49,75.37,179c13.7-10,29.56-17.24,41.35-29.39,14.69-15.17,21.34-36.09,31.37-54.61,22.23-41.09,63.85-71.73,110.24-79.48,40.39-6.76,83.55,4.33,115.33,29.69l0,0a128.79,128.79,0,0,1,9.79,8.61c1.23,1.19,2.46,2.43,3.64,3.67A146,146,0,0,1,405.83,82a161.61,161.61,0,0,1,8.38,15.35c.41.84.79,1.67,1.18,2.53a218.34,218.34,0,0,1,12.33,34.1c.25.88.48,1.76.71,2.64a.71.71,0,0,1,0,.2c.19.59.34,1.17.48,1.78v0c.07.25.16.5.23.75v.07a4.52,4.52,0,0,0,.11.47c.12.5.25,1,.37,1.49,1,4.21,2,8.47,2.84,12.73.32,1.47.61,2.93.89,4.4.13.74.27,1.46.41,2.18,2,10.91,3.5,21.91,4.68,32.85.39,3.58.76,7.14,1.07,10.7C445.51,269.2,446.45,335.45,438.39,400.21Z"/><path class="cls-3" d="M360.92,74c-.41,1.42-.8,2.81-1.18,4.23s-.75,2.64-1.09,4q-4.41,16-8.33,32.07c-.73,2.91-1.44,5.8-2.12,8.7q-3.58,15.23-6.78,30.55c-1.36,6.56-2.68,13.11-3.91,19.7q-3.42,17.85-6.24,35.77c-1,6.44-2,12.91-2.89,19.38q-2.76,19.62-4.84,39.31-4.6,43.32-5.92,86.94c-.25,7.57-.38,15.15-.48,22.74,0,1.94,0,3.86,0,5.8v.09c0,.94,0,1.84,0,2.79v0c0,.79,0,1.58,0,2.37v2c0,.88,0,1.73,0,2.61,0,1.89,0,3.76,0,5.66v1.51H316v-1.29c0-1.1,0-2.18,0-3.29s0-2.45,0-3.67V388c0-1.6,0-3.18,0-4.76v-.09c0-2.7.05-5.36.09-8.05s.05-5.25.12-7.86v-.09q.06-4.57.2-9.18,1.26-45.64,6.08-91,2.12-19.92,4.93-39.74,1.31-9.41,2.82-18.82,2.81-17.88,6.22-35.68c1.2-6.45,2.5-12.85,3.82-19.27q3.21-15.36,6.8-30.61c.87-3.65,1.75-7.28,2.64-10.94q3.69-14.86,7.76-29.7c.36-1.42.75-2.82,1.16-4.22s.8-2.88,1.21-4.33Z"/><path class="cls-3" d="M316.4,390.47l-.13-2.29c-6.49-109.75-14.56-246.33-4.94-356.41l1.13.1c-9.61,110-1.54,246.53,4.94,356.24l.14,2.29Z"/><path class="cls-3" d="M317.67,400.21h-1.21c-.16-.41-.32-.84-.48-1.24v-.05c-.66-1.71-1.29-3.42-1.93-5.16-.2-.47-.36-.94-.55-1.42-.47-1.28-1-2.59-1.43-3.9-.93-2.43-1.82-4.84-2.71-7.28q-14-37.83-27.14-76.09v0q-14.88-43.41-28.65-87.18Q249.79,206,246.16,194q-3.63-11.76-7.13-23.53c-.47-1.56-.95-3.09-1.41-4.64v0L234.42,155v0c-.21-.66-.39-1.29-.57-2-2.92-9.83-5.74-19.66-8.53-29.51a3.06,3.06,0,0,1-.1-.38q-5.11-18-10-35.91l1.12-.29q5,18.28,10.17,36.6c.07.27.16.57.25.84q4,14,8.08,28v0c.31,1.15.66,2.3,1,3.45,1.05,3.59,2.09,7.19,3.18,10.78.32,1.08.64,2.16,1,3.24q3.86,13.09,7.92,26.13v0q3.72,12.21,7.58,24.37,13.47,42.8,28.07,85.2,12.74,37.05,26.28,73.7,2,5.44,4,10.87c.11.31.23.63.36.92.16.5.35,1,.53,1.44.39,1.06.77,2.12,1.18,3.18s.75,2.05,1.16,3.07Z"/><path class="cls-4" d="M294,25a163.43,163.43,0,0,0-55.63,9.74c-4.25,1.54-8.6,3.38-11.55,6.74a5.43,5.43,0,0,0-1.32,2.28,4.65,4.65,0,0,0,.91,3.59,11.31,11.31,0,0,0,7.76,4.39,31.13,31.13,0,0,0,9.23-.38A197.46,197.46,0,0,0,293.22,37c-12.21,13.79-21.42,30.64-25,48.47-.56,2.8-1,5.71-.28,8.45s2.92,5.28,5.8,5.63S279.35,98,281.39,96c4.93-5,7.91-11.43,10.48-17.86,4-10,7.23-20.21,10.46-30.43-.29,12.67,3,25.1,7.62,36.91,1.75,4.52,4.15,9.23,8.56,11.42a5.21,5.21,0,0,0,4,.52c1.91-.69,2.72-2.86,3.23-4.79a104.12,104.12,0,0,0,1.41-47.61,126.58,126.58,0,0,0,19.58,31.06,24.32,24.32,0,0,0,6.83,6c2.27,1.2,5.27,1.68,7.35.15a5.9,5.9,0,0,0,2.15-5,15.22,15.22,0,0,0-1.56-5.41,86,86,0,0,0-19.84-27.82c10,8.37,22.76,13.75,35.62,16.71,2.48.57,5.82.63,6.81-1.68a4.37,4.37,0,0,0-.11-3.1c-1.85-5.47-7.51-8.69-12.89-11a123.74,123.74,0,0,0-34.45-9.36,32.25,32.25,0,0,1-8.26-2.65A84.07,84.07,0,0,0,294,25Z"/><path class="cls-5" d="M339.64,35.76C334.37,28.51,326.81,22.62,318,20.4S299,20,292.21,26C305.37,36.62,323,39.9,339.64,35.76Z"/><path class="cls-6" d="M187,86.82a161.44,161.44,0,0,0-41.8,37.64c-2.76,3.55-5.46,7.4-6.14,11.81a5.27,5.27,0,0,0,.11,2.62,4.7,4.7,0,0,0,2.7,2.56,11.43,11.43,0,0,0,8.93-.39,30.88,30.88,0,0,0,7.6-5.2,194.9,194.9,0,0,0,34.4-38.43c-2.91,18.12-1.61,37.23,4.95,54.22,1,2.65,2.22,5.35,4.32,7.28s5.31,2.93,7.94,1.7,3.92-4.25,4.54-7.08c1.5-6.81.54-13.85-.75-20.65-2-10.54-4.78-20.91-7.55-31.27,6.58,10.87,16.09,19.63,26.32,27.2,3.92,2.9,8.48,5.61,13.39,5.13a5.16,5.16,0,0,0,3.63-1.66c1.25-1.59.76-3.85.16-5.75a104.9,104.9,0,0,0-24.46-41,129,129,0,0,0,33.3,15.92,24.74,24.74,0,0,0,9,1.46c2.57-.19,5.36-1.37,6.3-3.76a5.91,5.91,0,0,0-.9-5.4A15.37,15.37,0,0,0,268.71,90,87.27,87.27,0,0,0,237,77c13,1.79,26.65-.4,39.12-4.7,2.41-.83,5.26-2.54,4.85-5a4.35,4.35,0,0,0-1.76-2.56c-4.51-3.65-11-3.39-16.84-2.52a123.82,123.82,0,0,0-34.17,10.29,32.46,32.46,0,0,1-8.42,2.14A83.67,83.67,0,0,0,187,86.82Z"/><path class="cls-5" d="M231.35,71.85c-8.37-3.35-17.93-4.33-26.61-1.54S188.49,80,186,88.66C202.82,90.69,219.49,84.16,231.35,71.85Z"/><path class="cls-4" d="M338.47,66.68a163.19,163.19,0,0,0-55.63,9.74c-4.25,1.54-8.6,3.37-11.55,6.74A5.39,5.39,0,0,0,270,85.43a4.65,4.65,0,0,0,.91,3.59,11.28,11.28,0,0,0,7.76,4.39,31.13,31.13,0,0,0,9.23-.37,197.48,197.48,0,0,0,49.79-14.33c-12.21,13.79-21.42,30.64-25,48.48-.56,2.79-1,5.7-.28,8.44s2.92,5.29,5.8,5.63,5.62-1.52,7.66-3.58c4.93-5,7.91-11.43,10.48-17.86,4-10,7.23-20.21,10.47-30.44-.3,12.67,3,25.1,7.61,36.91,1.75,4.53,4.15,9.24,8.56,11.42a5.13,5.13,0,0,0,4,.52c1.91-.68,2.72-2.86,3.23-4.78a104.16,104.16,0,0,0,1.41-47.62,126.83,126.83,0,0,0,19.58,31.07,24.48,24.48,0,0,0,6.83,6c2.27,1.19,5.27,1.67,7.35.14a5.88,5.88,0,0,0,2.15-5,15.28,15.28,0,0,0-1.56-5.41,85.92,85.92,0,0,0-19.84-27.81c10,8.37,22.76,13.74,35.62,16.7,2.48.57,5.82.63,6.81-1.68a4.37,4.37,0,0,0-.11-3.1c-1.85-5.47-7.51-8.69-12.89-11A124.08,124.08,0,0,0,381,76.31a32.62,32.62,0,0,1-8.26-2.64A83.74,83.74,0,0,0,338.47,66.68Z"/><path class="cls-5" d="M384.08,77.49c-5.27-7.26-12.83-13.14-21.67-15.37s-18.94-.43-25.76,5.6C349.81,78.34,367.43,81.63,384.08,77.49Z"/><path class="cls-3" d="M316.46,400.21h-2.52c-.48-1.22-.94-2.44-1.41-3.65-.21-.48-.39-.95-.57-1.42-1.23-3.18-2.48-6.34-3.73-9.52-.1-.24-.19-.49-.3-.74-11.19-28.65-22.73-57.48-35.2-86v0c-17.15-39.31-36.13-78-58.61-114.59q-4.37-7.14-8.94-14.16c-.57-.9-1.14-1.78-1.73-2.68a1.14,1.14,0,0,1,.34-1.6,1.2,1.2,0,0,1,1.62.34c.32.47.61.94.93,1.42q5.08,7.8,9.92,15.73c23.25,37.91,42.75,78,60.41,118.67,11.44,26.47,22.14,53.18,32.53,79.71.87,2.14,1.69,4.28,2.53,6.42l1.71,4.33.54,1.39c.66,1.72,1.32,3.41,2,5.1C316.14,399.37,316.3,399.8,316.46,400.21Z"/><path class="cls-1" d="M146.34,180.59a420.42,420.42,0,0,0-40.55,25.22C79.57,223.91,53.24,245,41.63,274.44c-2.76,7-3.88,16.47,2.42,20.63,4,2.6,9.24,1.84,13.68.22,11-4,19.71-12.4,27.82-20.78a630.9,630.9,0,0,0,74-92.29c-5,.24-9.37-1.08-14.38-1.51C145.56,180.73,145.9,180.56,146.34,180.59Z"/><path class="cls-1" d="M162.4,181c-28.06,39.4-57,80.86-63.46,128.65-1.07,7.84-.49,17.64,6.67,21.14,4.54,2.23,10.24.77,14.2-2.36s6.54-7.64,8.83-12.12c10.68-20.91,17.35-43.56,23.64-66.14q9.87-35.35,18.8-71C167.86,180,165.62,180.19,162.4,181Z"/><path class="cls-1" d="M244.23,139c41.21-11,84.37-22.14,126.07-13,6.83,1.49,14.81,4.91,15.57,11.8.48,4.38-2.45,8.59-6.24,10.88s-8.32,3-12.74,3.56c-20.59,2.42-41.44,1-62.11-.62q-32.36-2.6-64.65-6C241.78,143.21,242.58,141.42,244.23,139Z"/><path class="cls-1" d="M179.48,179.59c-18.25,44.71-36.85,91.6-32.17,139.6.77,7.88,3.59,17.29,11.36,19.08,4.94,1.14,10.15-1.57,13.29-5.51s4.61-8.91,5.8-13.79c5.59-22.77,6.87-46.33,7.8-69.74,1-24.44,1.58-48.89,2-73.34C184.57,177.41,182.42,178.07,179.48,179.59Z"/><path class="cls-1" d="M196.84,173.56c-6.08,47.85-11.93,97.9,5,143.11,2.78,7.41,7.94,15.8,15.92,15.56,5.06-.15,9.4-4.09,11.42-8.7s2.14-9.79,2-14.81c-.49-23.42-5.35-46.52-10.5-69.39q-8.08-35.81-17.07-71.39C201.2,170.17,199.3,171.34,196.84,173.56Z"/><path class="cls-1" d="M205.06,170.4c15.16,45.83,31.48,93.55,66.31,127.23,5.72,5.53,14,10.92,21.11,7.33,4.51-2.29,6.73-7.69,6.56-12.71s-2.28-9.75-4.54-14.25c-10.56-21-24.92-39.79-39.46-58.27q-22.74-28.95-46.24-57.3C207.54,165.48,206.32,167.35,205.06,170.4Z"/><path class="cls-1" d="M225.88,159.78C269.11,182,314,205.57,342,245c4.58,6.47,8.63,15.43,3.91,21.81-3,4-8.74,5.35-13.72,4.38s-9.35-3.8-13.46-6.73c-19.2-13.69-35.65-30.75-51.74-47.93q-25.18-26.9-49.66-54.42C220.59,161.41,222.64,160.52,225.88,159.78Z"/><path class="cls-1" d="M239.88,149c48,8.1,98,17.06,136.81,46.23,6.36,4.78,13,12.1,10.42,19.59-1.61,4.76-6.68,7.73-11.71,8.31s-10.08-.8-14.9-2.36c-22.49-7.25-43.4-18.55-64-30.06q-32.25-18-64-36.87C235.34,152.12,237,150.66,239.88,149Z"/><path class="cls-7" d="M178.71,133.91c-17.93,7.93-32.47,19.75-40.08,35.55-1.78,3.71-3.17,7.62-2.95,11.6.51,9.7,10.39,13.61,21.18,14.31,27.23,1.76,54-7.48,75.66-20.65,10-6.11,19.56-13.41,24.1-22.85,2.81-5.84,3.3-13-1.71-17.9-15.84-15.39-44.37-11.14-64.35-4.59A124.06,124.06,0,0,0,178.71,133.91Z"/><path class="cls-8" d="M433.73,272.61c-.05.4-.09.83-.14,1.26C431,295.64,422.4,317,409.93,335.41c-.27.4-.52.81-.8,1.19v0Q405.38,342,401.28,347c-15.31,18.7-36.15,35-58.65,47.47-.75.45-1.53.85-2.32,1.26-2.85,1.55-5.74,3-8.65,4.44H305.11c.93-4.87,2-9.74,3.12-14.59,0-.13.06-.27.11-.42.27-1.15.55-2.33.86-3.47.05-.18.09-.39.16-.57.14-.65.32-1.28.5-1.94.89-3.42,1.85-6.85,2.89-10.23.64-2.1,1.32-4.19,2-6.29v0c.31-1,.66-1.9,1-2.87v0c.23-.58.44-1.17.64-1.76.41-1.15.82-2.27,1.25-3.4q3.66-9.94,8.22-19.48c.22-.51.47-1,.75-1.53a201.14,201.14,0,0,1,15.79-27.09,177.89,177.89,0,0,1,16.08-19.93c1-1.12,2.07-2.23,3.17-3.33q2.6-2.67,5.32-5.23c.34-.32.66-.63,1-.95v0c18-16.64,39.55-29.39,63.28-35.73.41-.11.84-.25,1.27-.34.05.23.09.46.14.68A107.79,107.79,0,0,1,433.73,272.61Z"/><path class="cls-3" d="M432.66,241.66c-8.46,6.92-16,15.1-23,23.24-7.16,8.32-13.56,15.82-19.7,23.1-.46.59-.93,1.15-1.41,1.74h0v0c-3.17,3.77-6.24,7.46-9.31,11.2-10.88,13.26-20.59,25.72-29.35,37.62a8.58,8.58,0,0,1-.53.7,6,6,0,0,1-.52.7v0h0c-.82,1.15-1.66,2.28-2.46,3.41v0c-10,13.88-18.66,27-26.32,39.9-1.62,2.7-3.17,5.41-4.69,8.09-.48.83-.93,1.64-1.39,2.45s-1,1.79-1.45,2.69c-.69,1.21-1.35,2.43-2,3.65H309.2c.89-1.69,1.82-3.38,2.76-5.07.47-.88,1-1.78,1.48-2.66.31-.61.68-1.24,1-1.87,1.6-2.84,3.26-5.68,5-8.55q6.21-10.44,13.43-21.23c.25-.34.5-.7.72-1.06,4.17-6.17,8.56-12.44,13.22-18.89,1-1.37,2-2.72,3-4.12l0,0c6.65-9.07,13.88-18.42,21.73-28.23l0,0c.37-.4.69-.83,1-1.24,1.88-2.32,3.77-4.66,5.71-7,9.46-11.54,19-22.79,30.46-36.08,6.85-8,14.2-16,22.46-22.84.41-.11.84-.25,1.27-.34C432.57,241.21,432.61,241.44,432.66,241.66Z"/><path class="cls-3" d="M433.72,272.61c0,.42-.08.83-.14,1.27-15.09,4.87-30.08,10.18-44.8,15.83a.24.24,0,0,1-.22,0v0h0a.63.63,0,0,1-.49-.37.6.6,0,0,1,.33-.76c.56-.21,1.09-.42,1.65-.62C404.38,282.51,419,277.36,433.72,272.61Z"/><path class="cls-3" d="M372.76,308.36a.63.63,0,0,1-.52.65h-.12a.58.58,0,0,1-.52-.49v0c-1.11-10.17-2.68-20.4-4.64-30.48.33-.32.64-.61,1-.93,1.95,10,3.51,20.1,4.65,30.17C372.69,307.63,372.73,308,372.76,308.36Z"/><path class="cls-3" d="M409.94,335.4c-.28.42-.54.82-.81,1.21v0c-8.44.68-16.91,1.17-25.35,1.25-2.16,0-4.34,0-6.49,0-9.39,0-19.11-.07-28.31,2.1h-.1v0h-.09a.59.59,0,0,1-.5-.44.56.56,0,0,1,.44-.71l1.19-.26c9-1.91,18.32-1.88,27.36-1.86,2.17,0,4.33,0,6.48,0C392.47,336.66,401.2,336.15,409.94,335.4Z"/><path class="cls-3" d="M333.7,360.21a.56.56,0,0,1-.43.68.62.62,0,0,1-.19,0,.86.86,0,0,1-.21-.07.57.57,0,0,1-.32-.37c-1.81-8.51-4.06-17-6.71-25.32.23-.51.46-1,.74-1.54,2.77,8.6,5.13,17.37,7,26.16Z"/><path class="cls-3" d="M327.54,400.21H305.11c.93-4.87,2-9.74,3.12-14.59,0-.13.06-.27.11-.42.27-1.15.55-2.33.86-3.47.05-.18.09-.39.16-.57.14-.65.32-1.28.5-1.94.89-3.42,1.85-6.85,2.89-10.23a11.39,11.39,0,0,1,.8,1.33c.64,1.19,1.27,2.39,1.87,3.61.22.4.43.81.63,1.21s.43.82.66,1.24v.05c.14.29.3.61.43.92.8,1.56,1.55,3.14,2.3,4.71.23.41.41.84.62,1.27C322.7,388.87,325.18,394.53,327.54,400.21Z"/><path class="cls-8" d="M324.4,400.21H196c-16.75-12.33-31.06-27.73-41.23-45.74-.2-.38-.43-.76-.64-1.15.21-.11.41-.18.64-.29a110.58,110.58,0,0,1,30-8.56c.4-.07.81-.14,1.27-.18,21.93-2.87,44.89.24,66,7.73l1.39.47h0c4.12,1.53,8.17,3.18,12.11,5a189.92,189.92,0,0,1,42.34,27.41c.14.11.27.23.41.32,1.14,1,2.27,2,3.39,2.95l.34.29c.62.54,1.23,1.08,1.82,1.65.21.16.39.34.59.52l.89.81.57.54c.39.34.77.7,1.16,1.08C319.6,395.36,322,397.77,324.4,400.21Z"/><path class="cls-3" d="M225.84,389.89q11.94,5.5,23.09,10.32H246c-3.57-1.56-7.21-3.16-10.92-4.83-.48-.24-1-.45-1.48-.67q-4.1-1.83-8.26-3.77c-13.61-6.26-26.94-12.73-42.75-20.46-9.47-4.65-19.14-9.74-27.83-16-.2-.38-.43-.76-.64-1.15.21-.11.41-.18.64-.29,8.83,6.45,18.68,11.68,28.33,16.39,9.9,4.87,18.82,9.17,27.44,13.3.68.31,1.34.65,2,.92l0,0C217.06,385.81,221.42,387.86,225.84,389.89Z"/><path class="cls-3" d="M184.81,344.47c.42-.07.83-.13,1.27-.18,8.46,13.31,17.3,26.43,26.43,39.19a.23.23,0,0,1,.08.2h0v.05a.62.62,0,0,1-.24.55.6.6,0,0,1-.83-.13l-1-1.43C201.65,370.24,193.05,357.44,184.81,344.47Z"/><path class="cls-3" d="M235.44,394.66v.12a.52.52,0,0,1-.34.6l0,0c-4.12,1.51-8.26,3.11-12.36,4.8h-3.07c4.62-1.92,9.31-3.77,14-5.5.36-.14.68-.27,1-.38A.61.61,0,0,1,235.44,394.66Z"/><path class="cls-3" d="M262.47,382.78c1.46,5.8,2.94,11.73,5,17.43H266.2c-2-5.64-3.43-11.45-4.84-17.13-.55-2.1-1.07-4.17-1.62-6.25-2.16-8.36-4.8-16.61-7.67-24.81l1.39.47h0c2.73,7.93,5.28,16,7.4,24.05C261.42,378.61,262,380.71,262.47,382.78Z"/><path class="cls-3" d="M42.25,351.7c.08,4.46.54,9,2.37,13.07.66,1.45,1.86,3,3.45,2.81a3.82,3.82,0,0,0,2.51-2.2c3.07-5.39,3.81-11.74,4.26-17.91.34-4.76,2.26-35.35-3.55-33.9C43.29,315.56,42.14,345.66,42.25,351.7Z"/><path class="cls-3" d="M67.06,345.19c2.43,3.75,5.23,7.37,9,9.88,1.33.89,3.19,1.6,4.43.59a3.79,3.79,0,0,0,1-3.18c-.24-6.18-3-12-5.89-17.45-2.23-4.22-16.83-31.25-21-27C48.76,313.9,63.75,340.1,67.06,345.19Z"/><path class="cls-3" d="M87.38,333.55c4,2.06,8.24,3.84,12.72,4.18,1.6.13,3.57-.17,4.14-1.65a3.78,3.78,0,0,0-.75-3.24c-3.3-5.25-8.59-8.92-13.85-12.26-4-2.58-30.26-18.86-31.75-13.11C55.83,315.37,82,330.76,87.38,333.55Z"/><path class="cls-3" d="M98.47,306.39c4.26-1.44,8.48-3.27,11.83-6.25,1.19-1.06,2.33-2.68,1.64-4.11a3.84,3.84,0,0,0-2.89-1.69c-6.11-1.25-12.44,0-18.51,1.48-4.67,1.14-34.65,8.72-31.48,13.76C63.43,316.5,92.7,308.35,98.47,306.39Z"/><path class="cls-3" d="M118.33,400.21H115.9c-2.39-5.82-4.87-11.56-7.49-17.27-9.74-21.28-20.32-39.8-32-55.94-2-2.73-4-5.41-6-8-1.84-2.35-3.68-4.6-5.59-6.83v0c-1.55-1.82-3.1-3.6-4.71-5.36a5.7,5.7,0,0,0-.46-.52c-1.41-1.58-2.84-3.11-4.3-4.62a1.11,1.11,0,0,1,0-1.6,1.16,1.16,0,0,1,1.62,0c1.68,1.76,3.37,3.57,5,5.41.41.43.78.86,1.14,1.29q2.46,2.7,4.78,5.54h0c1.41,1.69,2.8,3.43,4.19,5.19,3.18,4,6.3,8.23,9.3,12.62v0A330.67,330.67,0,0,1,110.48,382C113.24,388,115.85,394.08,118.33,400.21Z"/><path class="cls-5" d="M30.81,288.12c-9.28,11-14.65,25.41-13.4,39.66.3,3.44,1.07,7,3.4,9.61,5.22,5.73,14.71,3.37,21.7,0A130.51,130.51,0,0,0,87,301.81c4.86-6.06,9.38-13.56,7.63-21.11-1.26-5.48-5.79-9.85-11-12C64.07,260.77,43.17,273.49,30.81,288.12Z"/><path class="cls-3" d="M193.61,311c1.16,4.31,2,8.8,1.36,13.21-.23,1.57-.95,3.41-2.53,3.64a3.85,3.85,0,0,1-3-1.43c-4.45-4.33-6.93-10.24-9.08-16.05-1.65-4.48-12-33.36-6-33.56C182.54,276.49,192,305.11,193.61,311Z"/><path class="cls-3" d="M168,311.47c-1.3,4.26-3,8.52-5.86,11.94-1,1.22-2.61,2.41-4.08,1.78a3.83,3.83,0,0,1-1.82-2.79c-1.48-6-.45-12.33.8-18.39,1-4.67,7.49-34.63,12.69-31.68C176.83,276.39,169.71,305.68,168,311.47Z"/><path class="cls-3" d="M145.17,305.84c-3.26,3.07-6.84,5.93-11.06,7.49-1.5.55-3.48.81-4.44-.46a3.8,3.8,0,0,1-.18-3.32c1.72-5.95,5.78-10.92,9.9-15.57,3.18-3.58,23.84-26.4,26.88-21.28C170.44,279.74,149.6,301.67,145.17,305.84Z"/><path class="cls-3" d="M127,282.76c-4.49-.23-9.06-.83-13.1-2.78-1.44-.69-3-1.94-2.73-3.5.19-1.14,1.28-1.88,2.31-2.42,5.53-2.86,12-3.38,18.21-3.63,4.8-.18,35.73-1.09,34.08,4.62C163.46,282.9,133.05,283.06,127,282.76Z"/><path class="cls-3" d="M167.11,266.41c-1,1.85-1.91,3.7-2.84,5.59v0c-.11.21-.21.41-.3.63-1,2.12-2,4.24-3,6.43l0,0c-1.23,2.66-2.37,5.34-3.48,8.09-1.25,3-2.44,6.16-3.57,9.33-2.48,6.86-4.71,14-6.71,21.35a351.54,351.54,0,0,0-8.51,41.18c-2,13.61-3.39,27.39-4.37,41.16h-2.28c1-13.89,2.37-27.77,4.42-41.48a349.63,349.63,0,0,1,10.28-47.62v0c1-3.47,2.09-6.83,3.23-10.16q2.52-7.55,5.42-14.7c.84-2.07,1.7-4.1,2.61-6.13,1-2.23,2-4.42,3-6.58v0c.25-.54.5-1.06.77-1.58,1.05-2.21,2.16-4.4,3.3-6.56a1.15,1.15,0,0,1,1.55-.47A1.13,1.13,0,0,1,167.11,266.41Z"/><path class="cls-5" d="M186.91,246.71c12,8,21.15,20.42,23.92,34.45.67,3.4.93,7.07-.6,10.17-3.42,6.94-13.2,7.27-20.86,5.9a131.45,131.45,0,0,1-52.66-22c-6.35-4.5-12.78-10.48-13.21-18.2-.31-5.62,2.83-11.06,7.28-14.55C147.32,229.5,171,236,186.91,246.71Z"/><path class="cls-3" d="M447.38,181.51c.09,4.46-.19,9-1.87,13.15-.59,1.47-1.74,3.09-3.33,2.94a3.85,3.85,0,0,1-2.6-2.11c-3.27-5.26-4.25-11.59-4.94-17.73-.52-4.74-3.61-35.24,2.25-34C445,145.43,447.26,175.47,447.38,181.51Z"/><path class="cls-3" d="M422.34,175.94c-2.28,3.83-4.94,7.56-8.56,10.2-1.29.94-3.13,1.72-4.4.77a3.8,3.8,0,0,1-1.09-3.15c0-6.18,2.53-12.07,5.21-17.66,2.07-4.3,15.63-31.85,20-27.75C439.43,144,425.45,170.73,422.34,175.94Z"/><path class="cls-3" d="M401.59,165.07c-3.91,2.21-8.09,4.14-12.55,4.66-1.59.18-3.58,0-4.2-1.5a3.74,3.74,0,0,1,.63-3.26c3.1-5.37,8.24-9.24,13.36-12.78,3.95-2.72,29.52-20,31.23-14.29C432.42,145.72,406.89,162.08,401.59,165.07Z"/><path class="cls-3" d="M389.47,138.35c-4.31-1.29-8.6-2.95-12.06-5.8-1.23-1-2.43-2.59-1.8-4.05a3.85,3.85,0,0,1,2.82-1.8c6.06-1.47,12.44-.45,18.56.79,4.71,1,35,7.41,32,12.56C424.87,147.14,395.31,140.09,389.47,138.35Z"/><path class="cls-3" d="M432.41,132c-1.34,1.51-2.66,3-4,4.6a.94.94,0,0,0-.14.18c-.16.18-.32.36-.45.54-1.53,1.8-3,3.65-4.46,5.52q-2.73,3.45-5.33,7.06c-1.95,2.68-3.87,5.41-5.73,8.22a310.25,310.25,0,0,0-25.94,48c-1.34,3-2.64,6-3.91,9.15-.8,2-1.66,4.19-2.6,6.7-5.16,14.06-11.9,36.31-18.24,61.33-4.33,17.08-8.45,35.48-11.77,53.49l0,0c-.11.63-.23,1.28-.34,1.91a4.11,4.11,0,0,1-.12.61,4.9,4.9,0,0,1-.11.63c-3.48,19.5-6,38.43-6.64,54.6-.09,1.93-.14,3.85-.16,5.7h-2.28c0-1.47.05-2.93.12-4.44.54-15.46,2.82-33.56,6.05-52.32a.06.06,0,0,0,0,0c.14-.86.3-1.69.43-2.53,3.21-18.14,7.33-36.83,11.65-54.3,6.4-25.69,13.29-48.8,18.66-63.76v0c1.16-3.2,2.23-6,3.23-8.43,1.53-3.67,3-7.28,4.64-10.79a321.8,321.8,0,0,1,22.44-42.13q4.29-6.74,8.85-13c1.32-1.83,2.64-3.61,4-5.37,1.5-1.94,3-3.83,4.55-5.7.34-.43.71-.88,1.09-1.31.57-.72,1.17-1.44,1.8-2.14,1-1.17,2-2.32,3-3.45a1.13,1.13,0,1,1,1.71,1.49Z"/><path class="cls-5" d="M456.38,117.55c9.69,10.61,15.61,24.83,14.91,39.12-.17,3.45-.79,7.08-3,9.73-5,5.93-14.57,3.93-21.69.78a130.66,130.66,0,0,1-45.81-33.84c-5.08-5.88-9.88-13.2-8.43-20.8,1.06-5.53,5.41-10.07,10.58-12.41C422.09,91.46,443.46,103.4,456.38,117.55Z"/><path class="cls-9" d="M209.46,109.91c-20.21,20.45-40.23,40-63.21,57.28-6,4.48-12.54,8.83-19.61,10.91a30.23,30.23,0,0,1-8.44,1.3c-11,.07-21.19-6.76-27.13-15.86s-8.1-20.22-8.28-31.06A94.33,94.33,0,0,1,95.35,84.4,113.46,113.46,0,0,1,68.89,37.51c-1.23-4.44-2.12-9.42.18-13.41,1.89-3.22,5.6-5.09,9.31-5.59a27.23,27.23,0,0,1,9.37.72c.59.12,1.21.25,1.8.41,19.34,4.78,36.88,14.81,53.92,25C164.18,57.12,185,70.45,199.74,89.51,204.41,95.56,208.48,102.36,209.46,109.91Z"/><path class="cls-10" d="M97.38,84.66c40.67-1.24,78.53,8.27,114.64,26.86"/><path class="cls-3" d="M126.64,178.1a30.23,30.23,0,0,1-8.44,1.3c-11,.07-21.19-6.76-27.13-15.86s-8.1-20.22-8.28-31.06A94.33,94.33,0,0,1,95.35,84.4,113.46,113.46,0,0,1,68.89,37.51c-1.23-4.44-2.12-9.42.18-13.41,1.89-3.22,5.6-5.09,9.31-5.59a27.23,27.23,0,0,1,9.37.72,25.75,25.75,0,0,0-2.36,11.41c.27,6.81,3.3,14.56,9.42,17.63-1.46,4.3-2.71,8.85-1.85,13.29.66,3.36,2.48,6.36,4.37,9.22,3,4.62,5.26,9,8.78,13.35A35,35,0,0,0,98,107.34a32.8,32.8,0,0,0,9.17,22c-4.31,9.85-3.46,21.57,1.54,31.06A43.55,43.55,0,0,0,126.64,178.1Z"/><path class="cls-3" d="M145,104.56a31.08,31.08,0,0,0-21.78,4.75c-2.1,1.39-4.23,3.63-3.57,6s3.52,3.26,6,3.69a124.25,124.25,0,0,0,48.71-1.26C165.46,112,155.56,106.2,145,104.56Z"/><path class="cls-3" d="M135.86,138.88c-4.82,3-9.66,6.77-11.4,12.14a4.33,4.33,0,0,0,.05,3.51,4.52,4.52,0,0,0,2.59,1.72c5.71,1.89,12.09.81,17.53-1.74s10.09-6.47,14.56-10.46c6.34-5.66,15.43-12.23,19.79-19.5-2.67-1.18-8.13.69-11.06,1.33a103,103,0,0,0-32.06,13Z"/><path class="cls-3" d="M122.8,76.6c-4.19,0-8.7,0-12.1-2.43a6.67,6.67,0,0,1-2.65-3.51,4.07,4.07,0,0,1,1.07-4.11c1.51-1.31,3.81-1,5.77-.62a67.72,67.72,0,0,1,17.79,6.66c2.68,1.46,5.15,2.93,1.11,3.88C130.52,77.24,126.17,76.56,122.8,76.6Z"/><path class="cls-3" d="M125.13,53.38c-3.74-1.88-7.72-4-9.6-7.69a6.56,6.56,0,0,1-.72-4.33,4.11,4.11,0,0,1,2.86-3.15c2-.47,3.87.81,5.41,2.09a66.64,66.64,0,0,1,12.68,14c1.69,2.52,3.21,4.95-.83,3.95C131.67,57.48,128.14,54.88,125.13,53.38Z"/><ellipse class="cls-3" cx="156.2" cy="71.75" rx="5.08" ry="5.04"/><path class="cls-3" d="M181.33,82.11a5.09,5.09,0,1,1-5.09-5A5.07,5.07,0,0,1,181.33,82.11Z"/><path class="cls-3" d="M174.09,141.75c-1.37,2.88-1.64,5.12-.13,6.19a3.69,3.69,0,0,0,3.29,0,32.74,32.74,0,0,0,8.41-4.8,196.38,196.38,0,0,0,28.41-25.89,17,17,0,0,0,4-6c1.65-5.14-1.91-8.77-6.75-7.38-4.26,1.21-8.1,4.81-11.38,7.66C197,114.13,178.87,131.76,174.09,141.75Z"/><path class="cls-11" d="M209.94,114.12a109.72,109.72,0,0,1,34.38-37.38"/><path class="cls-11" d="M212.85,111.17A130.13,130.13,0,0,1,254,86.31"/></g></g></svg>