<svg xmlns="http://www.w3.org/2000/svg" viewBox="0 0 485 422.59"><defs><style>.cls-1{fill:#fff;}.cls-2{fill:#ffcc7a;}.cls-11,.cls-12,.cls-3,.cls-8,.cls-9{fill:none;stroke-linecap:round;stroke-linejoin:round;}.cls-11,.cls-12,.cls-3,.cls-8{stroke:#4f1f37;}.cls-3{stroke-width:0.89px;}.cls-4{fill:#ff9280;}.cls-5{fill:#90d3d0;}.cls-6{fill:#fbf0e8;}.cls-7{fill:#4f1f37;}.cls-8{stroke-width:1.01px;}.cls-9{stroke:#ff9280;stroke-width:0.25px;opacity:0.36;}.cls-10{fill:#6c92e5;}.cls-11{stroke-width:0.76px;}.cls-12{stroke-width:0.95px;}</style></defs><g id="Layer_2" data-name="Layer 2"><g id="Layer_1-2" data-name="Layer 1"><path class="cls-1" d="M110.56,422.59a28.85,28.85,0,0,1-3.76-.42H81.74a14.31,14.31,0,0,1-2.83.29,14,14,0,0,1-2.84-.29H23.27A13.79,13.79,0,0,1,9.74,411.05c-7.06-35.71-14.15-82.5-6.3-127.72.47-2.73,1-5.56,1.7-8.57a52.94,52.94,0,0,1-2.46-25.71,13.78,13.78,0,0,1,13.63-11.66c.25,0,.5,0,.75,0,11.85-27.42,29.31-50,51-65.94,5.27-3.86,10.72-7.29,16-10.6,9-5.66,17.48-11,24-17.82,8.87-9.24,14.64-21.65,20.75-34.8,2.74-5.88,5.57-12,8.75-17.89,24.61-45.92,71.09-79.71,121.3-88.18A157,157,0,0,1,285,0,162,162,0,0,1,386.38,35.33l.23.19c3.82,3.08,7.42,6.29,10.71,9.53,1.35,1.33,2.72,2.72,4,4.12a163.52,163.52,0,0,1,20.69,27.31,180.86,180.86,0,0,1,9.13,16.91c.42.86.87,1.84,1.32,2.85a218.52,218.52,0,0,1,9.6,24.87,130.88,130.88,0,0,1,27.13,13.43c1.67.28,3.3.64,4.89,1.07a14.8,14.8,0,0,1,4.34,26.55,173.37,173.37,0,0,1-21.55,33.2l.06.64c.4,3.73.78,7.45,1.11,11.16,1.57,17.36,2.76,34.27,3.53,50.26l.08,1.78a14.63,14.63,0,0,1,.31,4.89,14.36,14.36,0,0,1,.11,4.93c.06,1.5.11,3,.16,4.48a14.7,14.7,0,0,1,.18,5.53c0,1,.07,2.05.1,3.08,1.13,45.1-.79,88.14-5.69,128a13.8,13.8,0,0,1-13.7,12.11H158.38a14.18,14.18,0,0,1-2.84.29,14,14,0,0,1-2.82-.29H134.84a13.74,13.74,0,0,1-2.78.29,14,14,0,0,1-2.84-.29H113.91a13.46,13.46,0,0,1-2.53.39Z"/><path class="cls-2" d="M443.16,409.55H23.27C15.41,369.73,10.09,326.86,17,286.87s26.4-79.08,59.15-103.09c13.85-10.17,29.88-17.6,41.8-30,14.85-15.48,21.57-36.83,31.71-55.73C172.17,56.13,214.24,24.87,261.14,17c40.82-6.9,84.45,4.42,116.59,30.29l0,0a130.46,130.46,0,0,1,9.89,8.79c1.24,1.22,2.48,2.48,3.68,3.75a149.71,149.71,0,0,1,18.93,25,166.16,166.16,0,0,1,8.46,15.66c.42.85.81,1.7,1.2,2.58a224.1,224.1,0,0,1,12.46,34.8c.26.9.49,1.79.72,2.69a.78.78,0,0,1,0,.21c.19.59.35,1.19.49,1.81v0c.06.25.16.5.23.76v.06a2.88,2.88,0,0,0,.11.49c.12.5.25,1,.37,1.52,1.06,4.3,2,8.64,2.87,13,.33,1.5.62,3,.9,4.49.14.75.28,1.49.41,2.23,2,11.13,3.55,22.35,4.74,33.51.39,3.65.76,7.29,1.08,10.92q2.25,24.78,3.5,49.71.59,12.17.92,24.38C449.81,325.76,448.29,367.94,443.16,409.55Z"/><path class="cls-3" d="M251.16,43.18a972.93,972.93,0,0,1,59.6,208.15c4.18,24.76,7.41,50,4.72,74.93"/><path class="cls-1" d="M223.76,56.38a236.46,236.46,0,0,0-24.09,14c-15.67,10.18-31.55,22.2-39.55,40.17-1.9,4.27-3,10.16.33,13,2.1,1.81,5.11,1.57,7.7.75,6.39-2,11.71-6.9,16.69-11.79A392.38,392.38,0,0,0,231.09,58c-2.84-.07-5.23-1.09-8-1.58C223.31,56.44,223.51,56.35,223.76,56.38Z"/><path class="cls-1" d="M232.78,57.37c-17.77,23.45-36.11,48.16-42.14,77.84-1,4.87-1.16,11,2.7,13.56,2.45,1.6,5.73.94,8.12-.84s4.06-4.5,5.57-7.21c7.05-12.63,11.94-26.54,16.61-40.43q7.31-21.72,14.12-43.66C235.9,57,234.63,57,232.78,57.37Z"/><path class="cls-1" d="M281,34.71c23.75-5.08,48.62-10.12,71.64-2.55,3.78,1.24,8.1,3.74,8.18,8.09a7.7,7.7,0,0,1-4.06,6.55,16.36,16.36,0,0,1-7.34,1.66c-11.72.6-23.39-1.2-34.95-3.16q-18.09-3.09-36.11-6.67C279.36,37.21,279.9,36.13,281,34.71Z"/><path class="cls-1" d="M242.47,57.24C230,84.46,217.15,113,217.4,143.36c0,5,1.16,11,5.45,12.47,2.72.94,5.79-.53,7.76-2.86s3-5.39,3.95-8.4c4.28-14,6.17-28.74,7.86-43.39q2.64-22.92,4.76-45.9C245.44,56.1,244.2,56.42,242.47,57.24Z"/><path class="cls-1" d="M252.54,54.24c-5.8,29.73-11.59,60.86-4.3,90,1.2,4.78,3.68,10.26,8.19,10.47,2.86.13,5.5-2.15,6.86-4.94s1.7-6.05,1.89-9.2c.89-14.71-.7-29.42-2.46-44Q260,73.74,256.66,51C255.17,52.3,254,53,252.54,54.24Z"/><path class="cls-1" d="M257.33,52.62c6.26,29.42,13.07,60.08,31,82.76,2.94,3.72,7.33,7.47,11.52,5.54,2.65-1.23,4.17-4.52,4.33-7.68a23.77,23.77,0,0,0-1.85-9.14C297.44,110.48,290.28,98,283,85.79q-11.37-19.17-23.19-38C259,49.65,258.19,50.76,257.33,52.62Z"/><path class="cls-1" d="M269.58,46.89c23.24,15.84,47.37,32.66,61.16,58.66,2.26,4.27,4.09,10.07,1.11,13.85a7.35,7.35,0,0,1-7.94,2.14c-2.75-.83-5.07-2.8-7.25-4.82-10.12-9.45-18.54-20.88-26.74-32.37q-12.84-18-25.26-36.35C266.52,47.68,267.72,47.21,269.58,46.89Z"/><path class="cls-1" d="M278,40.74c26.62,7.23,54.35,15.08,74.73,35.1,3.35,3.29,6.7,8.17,4.9,12.76a7.9,7.9,0,0,1-7,4.69c-2.87.13-5.64-1-8.28-2.15-12.3-5.55-23.51-13.57-34.54-21.71q-17.25-12.75-34.21-26C275.29,42.51,276.31,41.67,278,40.74Z"/><path class="cls-4" d="M244.31,28.56C233.81,32.73,225,39.49,220,49.06a16.54,16.54,0,0,0-2.24,7.15c-.19,6.1,5.17,9,11.22,9.92,15.24,2.32,30.76-2.28,43.63-9.57,6-3.38,11.68-7.54,14.71-13.25,1.87-3.54,2.5-8-.07-11.3-8.16-10.37-24.44-9-36-5.77A68,68,0,0,0,244.31,28.56Z"/><path class="cls-5" d="M307.76,237.61c.17-13.3,3.47-26.4,7.88-39,9.57-27.36,26.53-54.81,54.39-65.53a178.51,178.51,0,0,1,.9,35.95c-.84,11.56-4.27,23.24-11.77,32.32C346.72,216.42,321.18,223.34,307.76,237.61Z"/><path class="cls-3" d="M308.79,237.34a203.58,203.58,0,0,1,45-83.12"/><path class="cls-3" d="M346.35,307.21c11.44-8.15,19.23-20.41,25.75-32.85a272,272,0,0,0,28.7-90.75"/><path class="cls-4" d="M385.48,245.54c-5.3-19.25-10.16-38.73-12-58.61s-.64-40.31,6-59.16c30.82-2.74,64.55,5.35,89,24.3C452.48,189.18,416.76,220,385.48,245.54Z"/><path class="cls-3" d="M377.75,128.31c6,1.34,11.2,5.55,14.55,10.75s5,11.34,5.77,17.48c4.48-3.24,9-5.84,14.39-6.87s11.34-.29,15.89,2.85c3,2.07,5.28,5,7.46,8,8.41-9.32,22.28-12.79,34.38-9.46"/><path class="cls-3" d="M436.29,160.13A602.64,602.64,0,0,1,384,247c4.55-30.59,9.08-60.54,14.61-91"/><path class="cls-6" d="M416.73,142.89c-.52,1.11-2.7,1.2-4.88.19s-3.53-2.72-3-3.84,2.7-1.2,4.88-.2S417.24,141.77,416.73,142.89Z"/><path class="cls-6" d="M429.74,140.49c-.51,1.12-2.7,1.21-4.88.2s-3.52-2.73-3-3.84,2.7-1.21,4.88-.2S430.26,139.38,429.74,140.49Z"/><path class="cls-6" d="M438.53,148.76c-.51,1.11-2.7,1.2-4.87.19s-3.53-2.72-3-3.84,2.7-1.2,4.88-.2S439.05,147.64,438.53,148.76Z"/><path class="cls-7" d="M383.34,250.77c.85-12.29-5.36-23.9-7.16-36.08a26.34,26.34,0,0,1,8,3.93,16,16,0,0,1,5.5,11.79,21.24,21.24,0,0,1,23-5.71C403.11,234.09,391.25,239.89,383.34,250.77Z"/><path class="cls-8" d="M251.26,300.63a84.1,84.1,0,0,1-6.36,19.29,14.27,14.27,0,0,1-3.06,4.63c-1.68,1.5-3.91,2.18-6,3.05a31.41,31.41,0,0,0-18.75,26.13"/><path class="cls-8" d="M243,323.56a37.33,37.33,0,0,0-14.67,29.61"/><path class="cls-8" d="M241.65,324.51a44.87,44.87,0,0,1,13.83,21.64"/><path class="cls-7" d="M448.75,283.65C407.26,299.15,363,308.58,323,328,306.38,336,290.16,346,272,349c-11,1.89-22.47,1.2-33.12,4.54-11.94,3.7-21.74,12.05-31.37,20q-23,18.92-47.38,36h-49.2c-.12.14-.21.27-.32.41l-.44-.41H53.93l55.41-24.11a582.45,582.45,0,0,0,67.11-85.33l2,1.13a593.71,593.71,0,0,1-41.33,72.11l53.42-23.26c3.45-1.52,6.9-3,10.35-4.51,10.08-4.37,20.38-8.83,31.31-9.86,10.12-1,20.33,1,30.45.18h.07A68.35,68.35,0,0,0,280.3,332c8.37-2.9,16.42-7,24.35-11l4.26-2.12.23-.09q35.75-17.76,72.47-33.39,32.75-14,66.22-26.15c.07,1.47.14,3,.18,4.43s.16,2.95.21,4.42c.14,3.27.25,6.53.35,9.8C448.63,279.83,448.7,281.74,448.75,283.65Z"/><path class="cls-9" d="M308.91,318.9l.23-.09q4.38-2,8.72-4,31.88-14.68,63.75-29.41"/><path class="cls-9" d="M132.06,409.55q1.75-1.43,3.45-2.83a495,495,0,0,1,72-49.41c6.55-3.7,13.22-7.26,20.4-9.52,10-3.17,20.58-3.72,30.95-5.31,34.41-5.27,65.85-21.85,97.39-36.59q45.09-21.09,92-37.77"/><path class="cls-9" d="M109.66,409.55a131.68,131.68,0,0,1,15.89-10.42c15.57-9,31.65-17.21,46.1-27.88,12.83-9.45,24.58-20.95,39.49-26.61,11.77-4.51,24.63-5,37.16-6.51,4.83-.57,9.62-1.33,14.38-2.23h.07q8.87-1.65,17.55-3.91c30.7-7.89,60.21-20.84,89.33-33.69L448,263.7"/><path class="cls-9" d="M155.54,409.55c11.39-10.44,24-19.71,36.44-28.87,16.76-12.28,33.83-24.72,53.36-31.81,11.84-4.25,24.29-6.46,36.48-9.5,21.36-5.33,42-13.29,62.51-21.22l104.24-40.23"/><path class="cls-9" d="M78.91,409.55a264.56,264.56,0,0,0,91-43.63c6.85-5.11,13.68-10.63,20.67-15.83"/><path class="cls-10" d="M415.86,341.16s.59,2.34-1.18,8.21-84-44.05-84-44.05S264.65,329,213.39,308.66A87.77,87.77,0,0,1,201.52,303c-30.29-17.37-39.86-47.73-41.86-72.71-1.5-18.14,1-33.44,2.51-38.87,3.54-12.92-3.52-19.36-3.52-19.36l.73-.74A41,41,0,0,1,198,116.24c4.78,0,10,0,14.24,1.47,31,7.34,101.5,55.55,130.8,94.26s26.42,84.54,26.42,84.54,72.82,32.89,73.42,38.76S415.86,341.16,415.86,341.16Z"/><path class="cls-6" d="M250.46,286.15c-7.48,9.47-15.66,16.21-27.09,20.14a53.29,53.29,0,0,1-10,2.37A87.77,87.77,0,0,1,201.52,303c-30.29-17.37-39.86-47.73-41.86-72.71a35,35,0,0,1,6.12,4c2.73-7.47,10.37-13.41,18.07-15.41C181,244,197.94,267.61,221.49,277,231.77,281,239.44,285.11,250.46,286.15Z"/><path class="cls-6" d="M163.17,151.57a99.1,99.1,0,0,1,29.09-21.51,25.88,25.88,0,0,1,8.92-2.89,10.55,10.55,0,0,1,8.63,2.89c2.13,2.31,2.61,6.21.57,8.6,2.41-.8,4.79-.58,7.32-.39,3.44.26,7.13,1.76,8.54,4.9,1.62,3.57-.31,7.79-2.92,10.71-3.91,4.39-9.78,7.34-15.61,6.6,3.56,2.7,3.15,9.21,0,12.43s-8,4.07-12.45,3.56c-6.75-.77-13-4.25-18.07-8.73S167.23,157,163.17,151.57Z"/><path class="cls-7" d="M193.59,152.5a7.19,7.19,0,1,1-7.19-7.19A7.19,7.19,0,0,1,193.59,152.5Z"/><path class="cls-7" d="M158.65,146.48s-28.18,9.4-27.89,11.16,29.36,16.15,29.36,16.15,7.78-15.27,7.19-18.5S158.65,146.48,158.65,146.48Z"/><path class="cls-11" d="M186.45,210.59c-7.39,24.2,3.08,49,25.13,60.89,21.84,11.83,48,16.68,71.91,22.92,26.91,7,54.06,13.1,81.3,18.71l6,1.23-1.37-17.82"/><path class="cls-11" d="M236.59,281.68a18,18,0,0,0,8.34.13c4.74-1.33,8.13-5.91,9-10.76s-.57-9.88-2.93-14.21c5.47,5.54,12.81,7.77,20.38,9.61,5.12,1.25,11.25,1.23,14.84-2.63,2.51-2.7,3.14-6.75,2.52-10.39s-2.32-7-4-10.28a35.88,35.88,0,0,0,11.7,5.3c4,.86,8.59-.09,11-3.36a11.85,11.85,0,0,0,1.92-6.84,22.69,22.69,0,0,0-2.34-10.4c2.34,1.84,6.37,1.58,9.29,2.21a11.88,11.88,0,0,0,8.63-1.26c4.26-2.61,5.9-8.13,5.62-13.12"/><path class="cls-11" d="M253.5,260.12c15.63,15,35.7,24.6,56.06,32.09S351,305.36,370.85,314"/><path class="cls-11" d="M285.58,244.94a410.27,410.27,0,0,0,84.65,69"/><path class="cls-11" d="M308.62,229c9.31,7.14,16.5,16.62,23.38,26.11q21,28.94,39.81,59.4"/><path class="cls-11" d="M331.42,217.61c18.11,28,28.26,60.35,38.21,92.21"/><path class="cls-11" d="M395.69,341.86c.72-2.86,3.26-5,6-6a26.89,26.89,0,0,1,8.72-1.14c-2.61-5.63-.19-12.71,4.8-16.4"/><path class="cls-11" d="M198.09,225.07c.88-5.82,5-10.85,10.07-13.76s11.16-3.86,17-3.66a20.78,20.78,0,0,1,7.09,1.28,22.92,22.92,0,0,1,.42-9.92,21.12,21.12,0,0,1,3.2-6.4,32.86,32.86,0,0,1,10.46-10,21.57,21.57,0,0,1,14-2.8"/><path class="cls-12" d="M283.51,303a79.43,79.43,0,0,1-5.94,18,13.19,13.19,0,0,1-2.86,4.32c-1.57,1.4-3.65,2-5.59,2.85a29.33,29.33,0,0,0-17.51,24.4"/><path class="cls-12" d="M275.81,324.41a34.84,34.84,0,0,0-13.7,27.64"/><path class="cls-12" d="M274.53,325.3a41.93,41.93,0,0,1,12.92,20.2"/><path class="cls-5" d="M413.6,391.46A93.9,93.9,0,0,1,355.31,388c-9-3.59-17.69-8.81-23.38-16.66-3.27-4.5-5.55-9.85-9.79-13.46,16.87-5.35,35.08-6,51.84-.32S403.51,376.91,413.6,391.46Z"/><path class="cls-3" d="M213.84,363.06c4.93-4.43,11.37-6.78,17.78-8.46,26.28-6.89,54.13-4.09,80.77,1.19a447.63,447.63,0,0,1,58,15.63"/><path class="cls-5" d="M312.56,374.4a94,94,0,0,1-52.62,25.34c-9.61,1.26-19.73.93-28.53-3.15-5-2.34-9.65-5.89-15.11-7,12.13-12.9,27.69-22.37,45.11-25.54S296.66,366.61,312.56,374.4Z"/><path class="cls-7" d="M281.79,374.63a1,1,0,0,1-1,1c-22.89.87-43.68,6.05-61,15a102.06,102.06,0,0,0-26.11,18.91h-2.8a102.85,102.85,0,0,1,26.22-19.76c17.94-9.64,39.67-15.2,63.64-16.12A.94.94,0,0,1,281.79,374.63Z"/><path class="cls-12" d="M105.78,400.73c7.45-13,9.51-28.44,10.26-43.44a290.9,290.9,0,0,0-12.83-100.94"/><path class="cls-4" d="M116.1,323.33c-13.77-16.31-27.22-33-37.95-51.5S59.46,233,57.43,211.74c28.68-16.48,65.05-23.76,97.29-16.34C155.87,238.58,135,284.49,116.1,323.33Z"/><path class="cls-12" d="M56,213c6.46-1.41,13.36.36,18.94,3.91s10,8.75,13.44,14.37c2.9-5.14,6.08-9.68,10.88-13.11s10.88-5.37,16.7-4.37c3.87.67,7.4,2.54,10.84,4.42,4-12.81,15.89-22.39,29.12-24.59"/><path class="cls-12" d="M127.12,217.64a644.82,644.82,0,0,1-11.83,107.75C106,293.66,97,262.56,88.67,230.56"/><path class="cls-6" d="M100.4,209.68c0,1.31-2.08,2.38-4.64,2.38s-4.65-1.07-4.65-2.38,2.08-2.38,4.65-2.38S100.4,208.36,100.4,209.68Z"/><ellipse class="cls-6" cx="107.32" cy="201.52" rx="4.65" ry="2.38"/><ellipse class="cls-6" cx="119.56" cy="205.6" rx="4.65" ry="2.38"/><path class="cls-7" d="M116.38,329.36c-4.69-12.3-15.92-20.79-23.13-31.8a27.7,27.7,0,0,1,9.53.22c4.64,1.16,8.43,4.73,10.63,9a22.7,22.7,0,0,1,19.8-15.87C128.08,304.31,119.18,315.25,116.38,329.36Z"/><path class="cls-5" d="M111.33,385.25c-6.58.73-13.12-1.65-19-4.64a91.33,91.33,0,0,1-47.54-62.52c17.71,5.38,34,7.26,46.32,21.09C102.08,351.56,107.47,369.13,111.33,385.25Z"/><path class="cls-12" d="M61.41,331.9c24.4,14.33,40.14,39.42,54.92,63.55"/><path class="cls-10" d="M393.19,79.44a38.6,38.6,0,0,0-35,41.87c4-1.65,8.52-3.17,12.5-4.82s7.92-3.29,11.15-6a28.23,28.23,0,0,0,6.14-7.8C391.79,95.85,393.18,87.24,393.19,79.44Z"/><path class="cls-10" d="M16.31,252.36a38.59,38.59,0,0,0,32.15,44.11c-.63-4.26-1-9-1.65-13.3s-1.28-8.47-3.16-12.28a28.36,28.36,0,0,0-6.08-7.83C31.9,257.7,23.88,254.25,16.31,252.36Z"/></g></g></svg>